<svg width="50" height="82" viewBox="0 0 50 82" fill="none" xmlns="http://www.w3.org/2000/svg">
    <path d="M-11.9507 76.551C0.232555 78.2538 13.0215 75.3503 22.6029 67.6593C32.6974 59.5544 41.9555 44.0085 42.1323 30.8251C42.2961 18.616 36.8641 3.75562 33.0035 -7.84343C29.1407 -19.449 17.9728 -27.1077 7.84384 -33.1001C-7.31403 -42.0651 -21.267 -44.1991 -37.9833 -39.528C-51.0201 -35.8851 -62.1924 -28.4894 -72.7029 -20.2163C-82.0925 -12.8249 -89.2899 -4.29539 -87.5094 8.0926C-85.9919 18.6505 -83.0409 30.8661 -78.6587 40.3936C-72.9012 52.911 -61.9186 62.7791 -50.0544 69.3686C-36.0218 77.1631 -22.3146 77.3679 -11.9507 76.551Z" stroke="#006ED3" stroke-miterlimit="10"/>
    <path d="M-24.8939 41.3112C-19.1299 43.4517 -11.4001 41.1862 -6.01118 38.6491C-0.740844 36.168 3.54868 32.0186 4.02721 25.8472C4.43245 20.592 0.233459 14.6664 -3.54092 11.3123C-7.45541 7.83324 -12.2709 4.84564 -17.1425 2.96168C-26.7218 -0.743719 -40.5928 -2.01119 -45.8567 8.32255C-50.5579 17.5505 -50.9783 25.0152 -43.0954 32.4993C-38.7886 36.5905 -29.8366 42.5679 -24.8939 41.3112Z" stroke="#006ED3" stroke-miterlimit="10"/>
    <path d="M-23.6185 55.943C-20.4089 57.342 -15.2959 56.732 -11.916 56.4992C-7.52943 56.1974 -3.48557 54.6217 0.784592 53.8047C10.948 51.8626 16.2291 40.7895 16.7077 30.9235C17.4966 14.621 2.4616 0.933216 -11.6789 -4.08708C-21.187 -7.46268 -32.0058 -12.5304 -42.0075 -8.18479C-48.3169 -5.44292 -52.5116 -0.950737 -55.0982 5.31978C-59.5667 16.1471 -58.379 31.2985 -48.2156 38.621C-43.053 42.3393 -37.6232 45.674 -32.8637 49.7932C-29.251 52.9253 -27.9296 56.0055 -23.6185 55.943Z" stroke="#006ED3" stroke-miterlimit="10"/>
    <path d="M-33.6455 60.6428C-31.7831 61.1407 -30.4035 62.7466 -28.5476 63.4644C-24.9047 64.872 -20.8156 64.6457 -16.9787 64.2727C-11.3031 63.7209 -6.11902 61.4382 -0.693486 59.8215C3.3331 58.623 7.23249 57.4482 10.8344 55.269C16.1867 52.0292 18.6117 48.7506 20.5711 42.8702C22.3537 37.518 22.6318 31.5902 22.2072 26.0073C21.9075 22.0497 20.6293 18.7495 19.5709 14.9277C16.0681 2.28754 5.40675 -8.36522 -6.39924 -14.0343C-11.6243 -16.5434 -16.442 -19.0934 -22.1865 -19.9901C-28.2027 -20.9278 -33.1928 -20.5204 -39.1077 -19.5116C-49.1267 -17.8023 -54.6083 -10.5337 -61.6699 -3.89892C-67.9684 2.01809 -71.6717 11.0585 -71.0099 19.782C-70.4624 26.9902 -67.0243 32.3145 -62.1872 37.3477C-56.2832 43.4932 -50.4416 49.5977 -43.6968 54.7085C-41.7439 56.1872 -37.1655 61.0286 -33.6455 60.6428Z" stroke="#006ED3" stroke-miterlimit="10"/>
    <path d="M-18.4207 71.3996C-14.4351 73.0766 -9.54203 71.8027 -5.34731 71.3824C-0.71071 70.9189 3.83753 69.9317 8.30385 68.6189C14.4235 66.819 18.6678 65.5688 22.8194 60.5593C25.7768 56.9919 27.1283 52.8338 28.6157 48.5097C30.5276 42.9484 33.4269 37.0508 34.509 31.2588C35.5048 25.9324 32.7285 19.912 31.2648 14.9175C29.5382 9.0264 26.6735 3.3271 23.7269 -2.05317C16.7429 -14.8055 6.90922 -24.2597 -6.60612 -30.1552C-21.2337 -36.5356 -37.4737 -31.5649 -52.3449 -28.3251C-58.6628 -26.9477 -64.0884 -22.0417 -67.9209 -17.0472C-70.8029 -13.2922 -74.2906 -9.01347 -76.1444 -4.71744C-78.2181 0.0872968 -79.0328 4.97826 -79.6774 10.1602C-80.2572 14.8141 -81.1949 19.0497 -80.0783 23.751C-78.8367 28.9804 -74.4717 32.9682 -71.2685 37.0357C-68.2033 40.9265 -65.496 44.9595 -62.448 48.8611C-58.5163 53.8943 -53.8322 59.0224 -48.5985 62.8442C-44.3262 65.9633 -38.4221 67.1488 -33.4902 68.8431C-30.3022 69.9381 -27.8168 69.7635 -24.5792 69.9963C-22.4301 70.1537 -20.0137 71.7165 -18.4207 71.3996Z" stroke="#006ED3" stroke-miterlimit="10"/>
    <path d="M-12.1834 80.7323C-7.07041 80.797 -1.99838 80.0124 3.12322 79.6502C9.68258 79.1846 16.4424 79.5748 22.5858 76.6928C27.0629 74.5911 29.2917 69.5903 32.7449 66.2707C37.1875 61.9962 40.4596 56.7647 43.4451 51.3823C45.3506 47.9441 46.5383 45.0902 47.047 41.124C47.5148 37.4768 47.4587 33.8102 48.086 30.1716C49.5281 21.8231 48.7693 16.2057 46.1633 8.18059C44.9454 4.42992 44.2318 -0.139878 41.9125 -3.33441C38.6705 -7.79426 35.8662 -12.5322 33.4843 -17.5072C31.471 -21.7105 29.4426 -26.151 26.4614 -29.7465C22.3573 -34.6978 16.8477 -36.2562 11.9804 -40.0673C-2.19668 -51.1727 -21.9093 -54.6906 -38.2074 -46.5318C-44.1417 -43.5614 -50.147 -41.449 -56.1848 -38.8257C-63.7853 -35.5233 -71.0214 -30.7833 -78.2145 -26.6899C-84.7545 -22.9672 -91.4152 -18.2013 -94.1872 -10.9133C-95.4676 -7.55068 -95.0624 -3.33225 -94.1592 0.0304207C-93.435 2.72487 -93.907 5.36111 -93.588 8.08788C-93.2388 11.0669 -92.6439 14.2075 -92.0252 17.1455C-91.3678 20.2668 -90.1326 23.2177 -89.2618 26.2808C-88.5353 28.8351 -88.8673 31.3722 -88.5116 33.9934C-87.9878 37.8432 -86.3432 42.4733 -84.7588 46.0235C-82.4998 51.087 -79.5898 57.808 -75.1795 61.3948C-69.8532 65.7275 -62.4898 68.3012 -56.3486 71.2953C-50.8304 73.9854 -45.0535 76.8006 -39.0955 78.4431C-34.7305 79.6481 -29.9689 79.3097 -25.481 79.8464C-22.28 80.2279 -19.0424 80.3357 -15.8284 80.603C-14.4446 80.7194 -12.9443 81.351 -12.1834 80.7323Z" stroke="#006ED3" stroke-miterlimit="10"/>
</svg>
