<svg width="58" height="82" viewBox="0 0 58 82" fill="none" xmlns="http://www.w3.org/2000/svg">
    <path d="M84.0493 76.551C96.2326 78.2538 109.021 75.3503 118.603 67.6593C128.697 59.5544 137.956 44.0085 138.132 30.8251C138.296 18.616 132.864 3.75562 129.004 -7.84343C125.141 -19.449 113.973 -27.1077 103.844 -33.1001C88.686 -42.0651 74.733 -44.1991 58.0167 -39.528C44.9799 -35.8851 33.8076 -28.4894 23.2971 -20.2163C13.9075 -12.8249 6.71011 -4.29539 8.4906 8.0926C10.0081 18.6505 12.9591 30.8661 17.3413 40.3936C23.0988 52.911 34.0814 62.7791 45.9456 69.3686C59.9782 77.1631 73.6854 77.3679 84.0493 76.551Z" stroke="#006ED3" stroke-miterlimit="10"/>
    <path d="M67.3326 33.1801C73.1289 35.3399 77.6966 34.4087 83.1458 31.7337C86.349 30.1623 90.977 25.1937 90.755 21.4646C90.3045 13.9417 82.1306 10.8679 76.0756 8.85029C70.9712 7.14955 62.1873 6.4145 58.0207 10.5273C54.9684 13.5386 53.7914 18.9254 55.6431 22.7903C57.1175 25.8727 64.2286 34.7903 67.3326 33.1801Z" stroke="#006ED3" stroke-miterlimit="10"/>
    <path d="M71.1042 41.3112C76.8681 43.4517 84.598 41.1862 89.9869 38.6491C95.2572 36.168 99.5467 32.0186 100.025 25.8472C100.431 20.592 96.2315 14.6664 92.4571 11.3123C88.5426 7.83324 83.7271 4.84564 78.8555 2.96168C69.2762 -0.743719 55.4052 -2.01119 50.1414 8.32255C45.4401 17.5505 45.0198 25.0152 52.9027 32.4993C57.2095 36.5905 66.1615 42.5679 71.1042 41.3112Z" stroke="#006ED3" stroke-miterlimit="10"/>
    <path d="M72.3815 55.943C75.5911 57.342 80.7041 56.732 84.084 56.4992C88.4706 56.1974 92.5144 54.6217 96.7846 53.8047C106.948 51.8626 112.229 40.7895 112.708 30.9235C113.497 14.621 98.4616 0.933216 84.3211 -4.08708C74.813 -7.46268 63.9942 -12.5304 53.9925 -8.18479C47.6831 -5.44292 43.4884 -0.950737 40.9018 5.31978C36.4333 16.1471 37.621 31.2985 47.7844 38.621C52.947 42.3393 58.3768 45.674 63.1363 49.7932C66.749 52.9253 68.0704 56.0055 72.3815 55.943Z" stroke="#006ED3" stroke-miterlimit="10"/>
    <path d="M62.3545 60.6428C64.2169 61.1407 65.5965 62.7466 67.4524 63.4644C71.0953 64.872 75.1844 64.6457 79.0213 64.2727C84.6969 63.7209 89.881 61.4382 95.3065 59.8215C99.3331 58.623 103.232 57.4482 106.834 55.269C112.187 52.0292 114.612 48.7506 116.571 42.8702C118.354 37.518 118.632 31.5902 118.207 26.0073C117.908 22.0497 116.629 18.7495 115.571 14.9277C112.068 2.28754 101.407 -8.36522 89.6008 -14.0343C84.3757 -16.5434 79.558 -19.0934 73.8135 -19.9901C67.7973 -20.9278 62.8072 -20.5204 56.8923 -19.5116C46.8733 -17.8023 41.3917 -10.5337 34.3301 -3.89892C28.0316 2.01809 24.3283 11.0585 24.9901 19.782C25.5376 26.9902 28.9757 32.3145 33.8128 37.3477C39.7168 43.4932 45.5584 49.5977 52.3032 54.7085C54.2561 56.1872 58.8345 61.0286 62.3545 60.6428Z" stroke="#006ED3" stroke-miterlimit="10"/>
    <path d="M77.5773 71.3996C81.5629 73.0766 86.456 71.8027 90.6507 71.3824C95.2873 70.9189 99.8356 69.9317 104.302 68.6189C110.422 66.819 114.666 65.5688 118.817 60.5593C121.775 56.9919 123.126 52.8338 124.614 48.5097C126.526 42.9484 129.425 37.0508 130.507 31.2588C131.503 25.9324 128.727 19.912 127.263 14.9175C125.536 9.0264 122.672 3.3271 119.725 -2.05317C112.741 -14.8055 102.907 -24.2597 89.3919 -30.1552C74.7643 -36.5356 58.5244 -31.5649 43.6532 -28.3251C37.3352 -26.9477 31.9097 -22.0417 28.0771 -17.0472C25.1951 -13.2922 21.7074 -9.01347 19.8536 -4.71744C17.78 0.0872968 16.9652 4.97826 16.3207 10.1602C15.7408 14.8141 14.8032 19.0497 15.9197 23.751C17.1613 28.9804 21.5264 32.9682 24.7295 37.0357C27.7947 40.9265 30.5021 44.9595 33.55 48.8611C37.4818 53.8943 42.1658 59.0224 47.3995 62.8442C51.6718 65.9633 57.5759 67.1488 62.5078 68.8431C65.6959 69.9381 68.1812 69.7635 71.4189 69.9963C73.568 70.1537 75.9843 71.7165 77.5773 71.3996Z" stroke="#006ED3" stroke-miterlimit="10"/>
    <path d="M83.8166 80.7323C88.9296 80.797 94.0016 80.0124 99.1232 79.6502C105.683 79.1846 112.442 79.5748 118.586 76.6928C123.063 74.5911 125.292 69.5903 128.745 66.2707C133.188 61.9962 136.46 56.7647 139.445 51.3823C141.351 47.9441 142.538 45.0902 143.047 41.124C143.515 37.4768 143.459 33.8102 144.086 30.1716C145.528 21.8231 144.769 16.2057 142.163 8.18059C140.945 4.42992 140.232 -0.139878 137.912 -3.33441C134.671 -7.79426 131.866 -12.5322 129.484 -17.5072C127.471 -21.7105 125.443 -26.151 122.461 -29.7465C118.357 -34.6978 112.848 -36.2562 107.98 -40.0673C93.8033 -51.1727 74.0907 -54.6906 57.7926 -46.5318C51.8583 -43.5614 45.853 -41.449 39.8152 -38.8257C32.2147 -35.5233 24.9786 -30.7833 17.7855 -26.6899C11.2455 -22.9672 4.58481 -18.2013 1.81276 -10.9133C0.532361 -7.55068 0.937581 -3.33225 1.84076 0.0304207C2.56503 2.72487 2.09299 5.36111 2.41201 8.08788C2.76121 11.0669 3.35615 14.2075 3.97479 17.1455C4.63224 20.2668 5.86739 23.2177 6.73823 26.2808C7.46465 28.8351 7.13269 31.3722 7.48836 33.9934C8.01216 37.8432 9.65683 42.4733 11.2412 46.0235C13.5002 51.087 16.4102 57.808 20.8205 61.3948C26.1468 65.7275 33.5102 68.3012 39.6514 71.2953C45.1696 73.9854 50.9465 76.8006 56.9045 78.4431C61.2695 79.6481 66.0311 79.3097 70.519 79.8464C73.72 80.2279 76.9576 80.3357 80.1716 80.603C81.5554 80.7194 83.0557 81.351 83.8166 80.7323Z" stroke="#006ED3" stroke-miterlimit="10"/>
</svg>
