<svg width="152" height="151" viewBox="0 0 152 151" fill="none" xmlns="http://www.w3.org/2000/svg">
    <path fill-rule="evenodd" clip-rule="evenodd" d="M135.095 0.339484C135.095 0.341484 135.095 0.343484 135.097 0.347484C135.109 0.381484 135.121 0.419484 135.135 0.453484C135.121 0.417484 135.107 0.377484 135.095 0.339484Z" fill="#CE8624"/>
    <path d="M19.6473 96.608C22.3028 93.7526 24.6337 90.5287 27.8422 88.2961C32.931 84.754 39.7751 84.1925 45.7217 86.0104C51.6675 87.8283 56.7612 91.8123 60.7249 96.5557C63.1727 99.4852 65.311 102.789 68.5071 104.901C75.5163 109.531 84.7903 106.989 93.1613 106.002C94.7376 105.815 96.4351 105.715 97.8113 106.497C99.9414 107.706 100.464 110.677 99.6078 112.952C98.7515 115.228 96.8704 116.955 95.0176 118.549C82.4278 129.381 68.146 138.287 52.8354 144.857C43.5476 148.842 33.4648 152.016 23.4273 150.697C13.3899 149.379 3.51954 142.487 1.64947 132.65C0.769796 128.025 -1.14704 114.413 0.937616 110.192C3.47758 105.045 15.2228 101.365 19.6473 96.608Z" fill="#FF9E87"/>
    <path d="M116.639 144.166C123.628 145.143 130.964 143.477 136.46 139.066C142.251 134.416 147.561 125.499 147.663 117.937C147.757 110.933 144.641 102.409 142.426 95.7551C140.21 89.0979 133.804 84.7046 127.994 81.2672C119.299 76.1246 111.295 74.9005 101.706 77.58C94.2278 79.6697 87.8191 83.912 81.79 88.6577C76.4039 92.8976 72.2752 97.7904 73.2966 104.896C74.1671 110.953 75.8598 117.96 78.3736 123.425C81.6763 130.606 87.9762 136.266 94.7818 140.046C102.831 144.517 110.694 144.635 116.639 144.166Z" stroke="#006ED3" stroke-miterlimit="10"/>
    <path d="M107.31 113.514C110.479 115.02 113.618 111.165 110.176 109.767C108.031 108.895 104.932 111.674 106.746 113.319L107.31 113.514Z" stroke="#006ED3" stroke-miterlimit="10"/>
    <path d="M108.39 115.829C112.746 115.57 118.137 110.852 112.15 108.073C109.708 106.939 107.021 107.059 104.72 108.423C102.469 109.758 102.613 111.959 104.384 113.547C105.241 114.316 107.188 116.334 108.39 115.829Z" stroke="#006ED3" stroke-miterlimit="10"/>
    <path d="M107.049 119.289C110.374 120.528 112.994 119.994 116.12 118.459C117.958 117.558 120.612 114.708 120.485 112.569C120.226 108.253 115.538 106.49 112.064 105.333C109.136 104.357 104.098 103.935 101.708 106.295C99.9567 108.022 99.2816 111.112 100.344 113.329C101.19 115.097 105.269 120.213 107.049 119.289Z" stroke="#006ED3" stroke-miterlimit="10"/>
    <path d="M109.214 123.953C112.52 125.181 116.954 123.882 120.045 122.426C123.068 121.003 125.529 118.623 125.803 115.083C126.036 112.068 123.627 108.669 121.462 106.745C119.217 104.749 116.454 103.036 113.66 101.955C108.165 99.8295 100.208 99.1024 97.1887 105.03C94.4919 110.324 94.2508 114.606 98.7726 118.899C101.243 121.245 106.378 124.674 109.214 123.953Z" stroke="#006ED3" stroke-miterlimit="10"/>
    <path d="M109.946 132.345C111.788 133.148 114.72 132.798 116.659 132.664C119.176 132.491 121.495 131.587 123.945 131.119C129.775 130.005 132.804 123.653 133.079 117.993C133.531 108.642 124.907 100.79 116.795 97.9102C111.341 95.9739 105.135 93.0669 99.398 95.5597C95.7787 97.1325 93.3725 99.7093 91.8888 103.306C89.3255 109.517 90.0068 118.208 95.8369 122.409C98.7982 124.542 101.913 126.455 104.643 128.817C106.715 130.614 107.473 132.381 109.946 132.345Z" stroke="#006ED3" stroke-miterlimit="10"/>
    <path d="M104.194 135.04C105.262 135.326 106.053 136.247 107.118 136.659C109.208 137.466 111.553 137.336 113.754 137.122C117.01 136.806 119.984 135.497 123.096 134.569C125.406 133.882 127.642 133.208 129.709 131.958C132.779 130.099 134.17 128.219 135.294 124.845C136.316 121.775 136.476 118.375 136.232 115.172C136.06 112.902 135.327 111.009 134.72 108.817C132.711 101.566 126.595 95.4553 119.823 92.2033C116.826 90.7641 114.062 89.3013 110.767 88.7869C107.316 88.2491 104.453 88.4827 101.06 89.0614C95.3132 90.042 92.1689 94.2114 88.1181 98.0173C84.5051 101.411 82.3808 106.597 82.7604 111.601C83.0745 115.736 85.0467 118.79 87.8214 121.678C91.2081 125.203 94.559 128.704 98.428 131.636C99.5482 132.484 102.175 135.262 104.194 135.04Z" stroke="#006ED3" stroke-miterlimit="10"/>
    <path d="M112.927 141.212C115.214 142.174 118.02 141.443 120.427 141.202C123.086 140.936 125.695 140.37 128.257 139.617C131.768 138.585 134.202 137.867 136.584 134.994C138.28 132.947 139.056 130.562 139.909 128.082C141.006 124.892 142.669 121.509 143.289 118.186C143.861 115.131 142.268 111.677 141.428 108.812C140.438 105.433 138.795 102.164 137.104 99.0776C133.098 91.7625 127.457 86.3393 119.705 82.9575C111.314 79.2975 101.998 82.1488 93.4675 84.0072C89.8433 84.7974 86.7311 87.6116 84.5326 90.4766C82.8794 92.6305 80.8788 95.0849 79.8154 97.5493C78.6259 100.305 78.1585 103.111 77.7888 106.084C77.4562 108.753 76.9183 111.183 77.5588 113.88C78.271 116.879 80.7749 119.167 82.6123 121.5C84.3706 123.732 85.9236 126.045 87.672 128.283C89.9274 131.171 92.6143 134.112 95.6165 136.305C98.0672 138.094 101.454 138.774 104.283 139.746C106.112 140.374 107.537 140.274 109.395 140.407C110.627 140.497 112.014 141.394 112.927 141.212Z" stroke="#006ED3" stroke-miterlimit="10"/>
    <path d="M116.506 146.565C119.439 146.602 122.348 146.152 125.286 145.945C129.049 145.678 132.927 145.901 136.451 144.248C139.019 143.043 140.297 140.174 142.278 138.27C144.827 135.818 146.703 132.817 148.416 129.729C149.509 127.757 150.19 126.12 150.482 123.845C150.751 121.753 150.718 119.65 151.078 117.562C151.905 112.773 151.47 109.551 149.975 104.948C149.277 102.796 148.867 100.175 147.537 98.3423C145.677 95.784 144.069 93.0662 142.702 90.2124C141.547 87.8013 140.384 85.2541 138.674 83.1916C136.319 80.3514 133.159 79.4574 130.367 77.2713C122.235 70.9009 110.927 68.883 101.578 73.5631C98.1738 75.267 94.7289 76.4787 91.2655 77.9835C86.9057 79.8778 82.7548 82.5969 78.6286 84.945C74.8771 87.0804 71.0563 89.8143 69.4662 93.9948C68.7317 95.9238 68.9642 98.3436 69.4823 100.272C69.8977 101.818 69.627 103.33 69.81 104.894C70.0103 106.603 70.3516 108.405 70.7064 110.09C71.0836 111.881 71.7921 113.573 72.2916 115.33C72.7083 116.796 72.5179 118.251 72.7219 119.755C73.0224 121.963 73.9658 124.619 74.8746 126.655C76.1705 129.56 77.8397 133.415 80.3696 135.473C83.4249 137.958 87.6488 139.435 91.1715 141.152C94.337 142.695 97.6508 144.31 101.068 145.252C103.572 145.943 106.304 145.749 108.878 146.057C110.714 146.276 112.571 146.338 114.415 146.491C115.209 146.558 116.069 146.92 116.506 146.565Z" stroke="#006ED3" stroke-miterlimit="10"/>
    <path d="M92.9882 77.7793C94.3149 77.7793 94.3174 75.7168 92.9882 75.7168C91.6614 75.7168 91.659 77.7793 92.9882 77.7793Z" fill="black"/>
    <path d="M89.9335 72.2793C91.2602 72.2793 91.2627 70.2168 89.9335 70.2168C88.6067 70.2168 88.6043 72.2793 89.9335 72.2793Z" fill="black"/>
    <path d="M87.4906 79.0019C88.8173 79.0019 88.8198 76.9395 87.4906 76.9395C86.1626 76.9395 86.1614 79.0019 87.4906 79.0019Z" fill="black"/>
    <path d="M83.8246 72.8906C85.1513 72.8906 85.1538 70.8281 83.8246 70.8281C82.4966 70.8294 82.4954 72.8906 83.8246 72.8906Z" fill="black"/>
    <path d="M89.3222 64.3359C90.6489 64.3359 90.6514 62.2734 89.3222 62.2734C87.9954 62.2734 87.9929 64.3359 89.3222 64.3359Z" fill="black"/>
    <path d="M85.2363 66.9726C85.2363 67.1766 85.2363 67.3794 85.2363 67.5834C85.2363 68.9101 87.2988 68.9126 87.2988 67.5834C87.2988 67.3794 87.2988 67.1766 87.2988 66.9726C87.2988 65.6458 85.2363 65.6433 85.2363 66.9726Z" fill="black"/>
    <path d="M86.2675 76.5566C87.5942 76.5566 87.5967 74.4941 86.2675 74.4941C84.9407 74.4954 84.9383 76.5566 86.2675 76.5566Z" fill="black"/>
    <path d="M81.3788 78.3906C82.7056 78.3906 82.708 76.3281 81.3788 76.3281C80.0521 76.3281 80.0496 78.3906 81.3788 78.3906Z" fill="black"/>
    <path d="M77.7128 72.2793C79.0395 72.2793 79.042 70.2168 77.7128 70.2168C76.386 70.2168 76.3836 72.2793 77.7128 72.2793Z" fill="black"/>
    <path d="M91.7675 71.6679C93.0942 71.6679 93.0967 69.6055 91.7675 69.6055C90.4407 69.6055 90.4383 71.6679 91.7675 71.6679Z" fill="black"/>
    <path d="M97.8769 75.9453C99.2036 75.9453 99.2061 73.8828 97.8769 73.8828C96.5501 73.8828 96.5476 75.9453 97.8769 75.9453Z" fill="black"/>
    <path d="M97.8769 66.7812C99.2036 66.7812 99.2061 64.7188 97.8769 64.7188C96.5501 64.7188 96.5476 66.7812 97.8769 66.7812Z" fill="black"/>
    <path d="M92.3788 68.0039C93.7056 68.0039 93.708 65.9414 92.3788 65.9414C91.0521 65.9414 91.0496 68.0039 92.3788 68.0039Z" fill="black"/>
    <path d="M97.2655 59.4492C98.5923 59.4492 98.5947 57.3867 97.2655 57.3867C95.9388 57.3867 95.9363 59.4492 97.2655 59.4492Z" fill="black"/>
    <path d="M105.209 69.8359C106.536 69.8359 106.538 67.7734 105.209 67.7734C103.882 67.7734 103.88 69.8359 105.209 69.8359Z" fill="black"/>
    <path d="M96.0448 74.7246C97.3716 74.7246 97.374 72.6621 96.0448 72.6621C94.7181 72.6621 94.7156 74.7246 96.0448 74.7246Z" fill="black"/>
    <path d="M102.155 77.1679C103.481 77.1679 103.484 75.1055 102.155 75.1055C100.827 75.1055 100.825 77.1679 102.155 77.1679Z" fill="black"/>
    <path d="M83.2108 60.6699C84.5376 60.6699 84.5401 58.6074 83.2108 58.6074C81.8841 58.6074 81.8816 60.6699 83.2108 60.6699Z" fill="black"/>
    <path d="M88.1015 52.1171C89.4282 52.1171 89.4307 50.0547 88.1015 50.0547C86.7747 50.0547 86.7722 52.1171 88.1015 52.1171Z" fill="black"/>
    <path d="M70.9921 78.3906C72.3188 78.3906 72.3213 76.3281 70.9921 76.3281C69.6653 76.3281 69.6629 78.3906 70.9921 78.3906Z" fill="black"/>
    <path d="M66.7147 86.3339C68.0415 86.3339 68.044 84.2715 66.7147 84.2715C65.388 84.2715 65.3855 86.3339 66.7147 86.3339Z" fill="black"/>
    <path d="M60.6034 82.6679C61.9302 82.6679 61.9326 80.6055 60.6034 80.6055C59.2767 80.6055 59.2742 82.6679 60.6034 82.6679Z" fill="black"/>
    <path d="M50.2167 85.1113C51.5434 85.1113 51.5459 83.0488 50.2167 83.0488C48.8899 83.0488 48.8875 85.1113 50.2167 85.1113Z" fill="black"/>
    <path d="M44.1049 88.1679C45.4317 88.1679 45.4341 86.1055 44.1049 86.1055C42.7782 86.1055 42.7769 88.1679 44.1049 88.1679Z" fill="black"/>
    <path d="M39.2167 96.7207C40.5434 96.7207 40.5459 94.6582 39.2167 94.6582C37.8899 94.6582 37.8875 96.7207 39.2167 96.7207Z" fill="black"/>
    <path d="M37.996 104.664C39.3227 104.664 39.3252 102.602 37.996 102.602C36.6692 102.602 36.6668 104.664 37.996 104.664Z" fill="black"/>
    <path d="M41.662 107.109C42.9888 107.109 42.9912 105.047 41.662 105.047C40.3353 105.047 40.3328 107.109 41.662 107.109Z" fill="black"/>
    <path d="M41.2422 98.1347C41.2422 98.3387 41.2422 98.5415 41.2422 98.7455C41.2422 100.072 43.3047 100.075 43.3047 98.7455C43.3047 98.5415 43.3047 98.3387 43.3047 98.1347C43.3047 96.8079 41.2422 96.8054 41.2422 98.1347Z" fill="black"/>
    <path d="M45.328 94.2773C46.6548 94.2773 46.6572 92.2148 45.328 92.2148C44.0013 92.2148 43.9988 94.2773 45.328 94.2773Z" fill="black"/>
    <path d="M50.2167 91.834C51.5434 91.834 51.5459 89.7715 50.2167 89.7715C48.8899 89.7715 48.8875 91.834 50.2167 91.834Z" fill="black"/>
    <path d="M58.7718 93.0546C60.0986 93.0546 60.1011 90.9922 58.7718 90.9922C57.4439 90.9922 57.4426 93.0546 58.7718 93.0546Z" fill="black"/>
    <path d="M55.1049 88.1679C56.4317 88.1679 56.4341 86.1055 55.1049 86.1055C53.7782 86.1055 53.7769 88.1679 55.1049 88.1679Z" fill="black"/>
    <path d="M52.0492 86.9453C53.3759 86.9453 53.3784 84.8828 52.0492 84.8828C50.7212 84.8828 50.72 86.9453 52.0492 86.9453Z" fill="black"/>
    <path d="M54.3752 94.3502C54.1712 94.5542 53.9684 94.757 53.7644 94.961C52.8246 95.9007 54.2824 97.3598 55.2222 96.4188C55.4262 96.2148 55.629 96.012 55.833 95.808C56.7727 94.8695 55.3149 93.4104 54.3752 94.3502Z" fill="black"/>
    <path d="M47.7709 99.166C47.9749 99.166 48.1777 99.166 48.3817 99.166C49.7085 99.166 49.711 97.1035 48.3817 97.1035C48.1777 97.1035 47.9749 97.1035 47.7709 97.1035C46.4442 97.1035 46.4429 99.166 47.7709 99.166Z" fill="black"/>
    <path d="M46.7422 104.856C46.7422 105.06 46.7422 105.263 46.7422 105.467C46.7422 106.793 48.8047 106.796 48.8047 105.467C48.8047 105.263 48.8047 105.06 48.8047 104.856C48.8034 103.528 46.7422 103.527 46.7422 104.856Z" fill="black"/>
    <path d="M44.7172 110.164C46.0439 110.164 46.0464 108.102 44.7172 108.102C43.3892 108.102 43.3879 110.164 44.7172 110.164Z" fill="black"/>
    <path d="M56.9374 100.998C58.2642 100.998 58.2666 98.9355 56.9374 98.9355C55.6106 98.9355 55.6082 100.998 56.9374 100.998Z" fill="black"/>
    <path d="M61.2147 88.1679C62.5415 88.1679 62.544 86.1055 61.2147 86.1055C59.888 86.1055 59.8855 88.1679 61.2147 88.1679Z" fill="black"/>
    <path d="M72.3321 88.4761C72.5361 88.2721 72.7389 88.0693 72.9429 87.8653C73.8826 86.9255 72.4248 85.4665 71.4851 86.4075C71.281 86.6115 71.0783 86.8142 70.8742 87.0183C69.9333 87.9568 71.3923 89.4158 72.3321 88.4761Z" fill="black"/>
    <path d="M66.1039 81.4453C67.4306 81.4453 67.4331 79.3828 66.1039 79.3828C64.7759 79.3828 64.7747 81.4453 66.1039 81.4453Z" fill="black"/>
    <path d="M78.3241 85.1113C79.6509 85.1113 79.6533 83.0488 78.3241 83.0488C76.9974 83.0488 76.9949 85.1113 78.3241 85.1113Z" fill="black"/>
    <path d="M75.8788 80.2226C77.2056 80.2226 77.208 78.1602 75.8788 78.1602C74.5521 78.1614 74.5496 80.2226 75.8788 80.2226Z" fill="black"/>
    <path d="M78.3241 68.6133C79.6509 68.6133 79.6533 66.5508 78.3241 66.5508C76.9974 66.5508 76.9949 68.6133 78.3241 68.6133Z" fill="black"/>
    <path d="M88.7108 83.8887C90.0376 83.8887 90.0401 81.8262 88.7108 81.8262C87.3841 81.8274 87.3816 83.8887 88.7108 83.8887Z" fill="black"/>
    <path d="M94.8226 83.8887C96.1494 83.8887 96.1519 81.8262 94.8226 81.8262C93.4946 81.8274 93.4934 83.8887 94.8226 83.8887Z" fill="black"/>
    <path d="M90.5448 61.2812C91.8716 61.2812 91.874 59.2188 90.5448 59.2188C89.2181 59.2188 89.2156 61.2812 90.5448 61.2812Z" fill="black"/>
    <path d="M85.6561 57.0039C86.9829 57.0039 86.9854 54.9414 85.6561 54.9414C84.3294 54.9414 84.3269 57.0039 85.6561 57.0039Z" fill="black"/>
    <path d="M93.5995 55.7832C94.9263 55.7832 94.9287 53.7207 93.5995 53.7207C92.2728 53.7207 92.2703 55.7832 93.5995 55.7832Z" fill="black"/>
    <path d="M105.209 53.3378C106.536 53.3378 106.538 51.2754 105.209 51.2754C103.882 51.2754 103.88 53.3378 105.209 53.3378Z" fill="black"/>
    <path d="M106.432 64.9472C107.758 64.9472 107.761 62.8848 106.432 62.8848C105.105 62.8848 105.102 64.9472 106.432 64.9472Z" fill="black"/>
    <path d="M111.93 56.3945C113.256 56.3945 113.259 54.332 111.93 54.332C110.603 54.332 110.6 56.3945 111.93 56.3945Z" fill="black"/>
    <path d="M103.377 47.2265C104.704 47.2265 104.706 45.1641 103.377 45.1641C102.05 45.1641 102.048 47.2265 103.377 47.2265Z" fill="black"/>
    <path d="M95.4335 48.4492C96.7602 48.4492 96.7627 46.3867 95.4335 46.3867C94.1067 46.3867 94.1043 48.4492 95.4335 48.4492Z" fill="black"/>
    <path d="M102.766 61.8925C104.092 61.8925 104.095 59.8301 102.766 59.8301C101.439 59.8313 101.436 61.8925 102.766 61.8925Z" fill="black"/>
    <path d="M102.766 67.3925C104.092 67.3925 104.095 65.3301 102.766 65.3301C101.439 65.3301 101.436 67.3925 102.766 67.3925Z" fill="black"/>
    <path d="M99.0995 52.1171C99.3035 52.1171 99.5063 52.1171 99.7103 52.1171C101.037 52.1171 101.04 50.0547 99.7103 50.0547C99.5063 50.0547 99.3035 50.0547 99.0995 50.0547C97.7728 50.0547 97.7703 52.1171 99.0995 52.1171Z" fill="black"/>
    <path d="M109.487 47.8378C110.813 47.8378 110.816 45.7754 109.487 45.7754C108.159 45.7766 108.157 47.8378 109.487 47.8378Z" fill="black"/>
    <path d="M109.487 38.0625C110.813 38.0625 110.816 36 109.487 36C108.159 36 108.157 38.0625 109.487 38.0625Z" fill="black"/>
    <path d="M100.932 40.5058C101.136 40.5058 101.338 40.5058 101.542 40.5058C102.869 40.5058 102.872 38.4434 101.542 38.4434C101.338 38.4434 101.136 38.4434 100.932 38.4434C99.6048 38.4446 99.6023 40.5058 100.932 40.5058Z" fill="black"/>
    <path d="M114.986 46.6171C116.313 46.6171 116.315 44.5547 114.986 44.5547C113.659 44.5547 113.657 46.6171 114.986 46.6171Z" fill="black"/>
    <path d="M116.208 50.8945C117.535 50.8945 117.538 48.832 116.208 48.832C114.882 48.832 114.88 50.8945 116.208 50.8945Z" fill="black"/>
    <path d="M73.4359 69.2246C74.7627 69.2246 74.7651 67.1621 73.4359 67.1621C72.1079 67.1633 72.1067 69.2246 73.4359 69.2246Z" fill="black"/>
    <path d="M62.4379 77.1679C63.7646 77.1679 63.7671 75.1055 62.4379 75.1055C61.1099 75.1055 61.1086 77.1679 62.4379 77.1679Z" fill="black"/>
    <path d="M55.7152 79.6113C57.042 79.6113 57.0444 77.5488 55.7152 77.5488C54.3872 77.5488 54.386 79.6113 55.7152 79.6113Z" fill="black"/>
</svg>
