<svg xmlns="http://www.w3.org/2000/svg" viewBox="0 0 20.55 18.67"><defs><style>.cls-1,.cls-2{fill:#004fd4;}.cls-1{opacity:0.3;isolation:isolate;}</style></defs><g id="Layer_2" data-name="Layer 2"><g id="Layer_1-2" data-name="Layer 1"><rect class="cls-1" x="0.36" width="20" height="10"/><path class="cls-2" d="M2.55,2.6V6.28S2.33,7.5,1.27,7.5,0,6.28,0,6.28V.16H6.36A1.24,1.24,0,0,1,7.64,1.38,1.24,1.24,0,0,1,6.36,2.6Z"/><path class="cls-2" d="M17.82,2.6H14s-1.27-.21-1.27-1.22S14,.16,14,.16h6.36V6.28a1.27,1.27,0,0,1-2.54,0Z"/><path class="cls-2" d="M18,16.22V12.55s.22-1.22,1.27-1.22,1.28,1.22,1.28,1.22v6.12H14.18a1.23,1.23,0,1,1,0-2.45Z"/><path class="cls-2" d="M2.73,16.22H6.55s1.27.21,1.27,1.23-1.27,1.22-1.27,1.22H.18V12.55a1.21,1.21,0,0,1,1.27-1.22,1.21,1.21,0,0,1,1.28,1.22Z"/></g></g></svg>