<svg width="180" height="235" viewBox="0 0 180 235" fill="none" xmlns="http://www.w3.org/2000/svg">
    <path d="M60.2966 97.6796C72.2664 99.4858 84.4393 97.8102 96.4558 99.1123C108.472 100.414 121.116 105.453 127.97 117.156C141.897 140.938 124.828 176.796 137.748 201.354C143.936 213.117 155.545 219.11 166.67 223.554C185.672 231.144 205.695 236.273 225.716 234.723C245.736 233.173 265.842 224.423 279.819 207.465C293.25 191.168 300.051 168.726 303.402 146.356C310.159 101.246 303.839 52.9559 283.225 14.1158C262.61 -24.7243 227.278 -53.1045 188.628 -58.1142C165.089 -61.1652 141.386 -55.8419 118.294 -49.6569C78.1089 -38.8955 35.5769 -23.4905 7.37445 14.0292C-18.9789 49.0898 31.5897 93.3472 60.2966 97.6796Z" fill="#2E6BC5"/>
</svg>
