<svg width="32" height="32" viewBox="0 0 32 32" fill="none" xmlns="http://www.w3.org/2000/svg">
    <path fill-rule="evenodd" clip-rule="evenodd" d="M16.0013 2.66797C23.3533 2.66797 29.3346 8.64797 29.3346 16.0013C29.3346 23.3533 23.3533 29.3346 16.0013 29.3346C8.6493 29.3346 2.66797 23.3533 2.66797 16.0013C2.66797 8.64797 8.6493 2.66797 16.0013 2.66797ZM9.70397 16.9213L13.52 20.9213C14.028 21.4533 14.872 21.4746 15.4053 20.9653C15.9386 20.456 15.9573 19.6133 15.4493 19.08L13.784 17.3346H21.3346C22.072 17.3346 22.668 16.7373 22.668 16.0013C22.668 15.264 22.072 14.668 21.3346 14.668H13.8866L15.6106 12.944C16.132 12.4226 16.132 11.5786 15.6106 11.0586C15.0906 10.5373 14.2466 10.5373 13.7253 11.0586L9.72664 15.0573C9.60264 15.18 9.5053 15.328 9.4373 15.4906C9.37064 15.6533 9.33464 15.8266 9.33464 16.0013C9.33464 16.172 9.37064 16.3426 9.43597 16.504C9.45936 16.5601 9.49456 16.6084 9.53006 16.657C9.54516 16.6777 9.56031 16.6985 9.57464 16.72C9.59016 16.7435 9.6037 16.768 9.61724 16.7926C9.64205 16.8375 9.66687 16.8825 9.70397 16.9213Z" fill="#004FD4"/>
</svg>
