<svg width="375" height="812" viewBox="0 0 375 812" fill="none" xmlns="http://www.w3.org/2000/svg">
<g clip-path="url(#clip0)">
        <rect width="375" height="812" fill="white"/>
        <path d="M375 812L375 0L0 0L0 812L375 812Z" fill="#EFEFEF"/>
        <path d="M375.063 814.182V673.627C375.063 673.627 349.193 638.432 323.318 677.229C300.488 711.462 314.592 728.912 276.748 759.198C268.863 765.51 260.242 770.834 251.129 775.192C240.557 780.251 221.2 791.974 208.926 814.182C191.336 846.003 208.926 814.182 208.926 814.182H375.063Z" fill="#FF8B78"/>
        <path d="M293.621 722.178C292.27 728.169 289.261 733.695 284.777 737.893C281.498 740.966 277.105 743.764 271.449 744.847C256.366 747.733 260.15 732.871 264.965 719.076C269.78 705.281 300.97 663.686 308.03 672.347C314.795 680.652 301.516 687.186 293.621 722.178Z" fill="#FF8B78"/>
        <path d="M-1.03271 260.825C-1.03271 260.825 22.1083 177.734 84.7037 113.582C115.324 82.1991 215.181 9.47079 213.03 -69H-1.03271V260.825Z" fill="#FF9B00"/>
        <path d="M26.5598 239.602C31.1586 230.754 35.7573 221.903 40.356 213.056C41.0859 211.649 41.8617 210.193 43.1382 209.25C44.4147 208.308 46.3491 208.053 47.5307 209.11C48.6403 210.101 48.7025 211.783 48.6829 213.268C48.4767 230.322 48.1265 248.008 40.7455 263.384C37.803 269.515 33.4039 275.431 27.018 277.777C24.6712 278.641 21.8563 278.919 19.8139 277.476C17.4605 275.817 16.9695 272.529 17.1823 269.656C18.0235 258.377 21.3195 249.683 26.5598 239.602Z" fill="#FF9B00"/>
        <path d="M49.4423 191.166C49.5568 190.299 49.7369 189.428 50.1231 188.643C50.8497 187.157 53.609 180.953 54.9608 180.001C55.347 179.73 55.7725 179.448 56.2439 179.468C56.8003 179.491 57.252 179.919 57.5793 180.368C58.2045 181.225 58.594 182.23 58.918 183.241C60.0767 186.853 59.5432 195.599 58.8198 199.634C58.6201 200.753 58.0506 202.562 57.3796 203.953C53.3602 212.3 51.6156 203.132 51.1934 201.525C50.529 198.983 48.9775 194.69 49.4423 191.166Z" fill="#FF9B00"/>
        <path d="M314.21 583.216C308.747 588.072 305.235 594.691 301.801 601.143C288.558 626.021 274.477 650.948 254.505 670.832C234.578 690.667 209.63 704.646 188.112 722.74C166.595 740.838 147.692 765.359 147.018 793.463C146.246 825.647 170.248 854.291 199.005 868.783C227.763 883.275 260.707 886.442 292.781 889.37C306.816 890.65 320.851 891.932 334.886 893.212C344.182 894.059 353.762 894.88 362.672 892.103C372.377 889.079 380.347 882.041 386.854 874.234C405.347 852.039 413.847 823.203 418.659 794.719C428.357 737.285 424.76 677.651 408.224 621.8C405.036 611.035 401.255 600.181 394.333 591.344C378.897 571.629 333.472 566.1 314.21 583.216Z" stroke="white" stroke-width="4" stroke-miterlimit="10"/>
        <path d="M-41.9436 539.016C-31.6103 528.369 -24.7007 514.492 -13.068 505.281C3.43188 492.222 28.3568 491.329 46.0186 502.775C63.6772 514.22 73.0318 536.974 69.0091 557.624C66.3808 571.118 58.7806 583.084 54.388 596.114C49.8187 609.67 48.791 624.182 44.6963 637.888C41.3446 649.115 35.9734 659.654 29.7675 669.591C23.4275 679.738 15.9418 689.554 5.7558 695.833C-4.43019 702.112 -17.8009 704.292 -28.4517 698.84C-39.0632 693.409 -44.9483 681.813 -48.7517 670.514C-57.3077 645.084 -58.7315 618.092 -64.2107 591.978C-65.9454 583.709 -75.1986 566.119 -70.8486 558.475C-66.7048 551.198 -48.6404 545.92 -41.9436 539.016Z" fill="#005CC4"/>
        <path d="M-21.5225 606.202C-15.6309 599.635 -7.11417 595.495 1.69056 594.916C3.14056 594.821 4.63965 594.825 5.998 595.342C8.36448 596.241 9.90612 598.519 11.0157 600.79C17.1561 613.348 14.4263 628.674 8.04698 641.115C3.22565 650.519 -3.92614 659.17 -13.595 663.443C-23.2638 667.717 -35.6886 666.715 -43.099 659.18C-49.4587 652.714 -51.092 642.967 -51.0232 633.903C-50.9578 625.216 -44.9909 623.54 -38.1369 620.432C-30.6382 617.035 -26.897 612.193 -21.5225 606.202Z" fill="#EFEFEF"/>
        <path d="M65.6312 558.645C50.1755 557.399 36.4381 546.591 29.3845 532.786C22.3277 518.985 21.3686 502.647 24.2523 487.416C25.375 481.49 27.1195 475.525 30.7167 470.679C39.7571 458.497 58.5351 457.028 72.0007 464.017C85.4664 471.01 94.4348 484.356 101.092 497.988C107.125 510.337 114.303 529.917 106.624 543.181C100.009 554.614 78.3277 559.669 65.6312 558.645Z" stroke="white" stroke-width="4" stroke-miterlimit="10"/>
    </g>
    <defs>
        <clipPath id="clip0">
            <rect width="375" height="812" fill="white"/>
        </clipPath>
    </defs>
</svg>
