<svg width="375" height="812" viewBox="0 0 375 812" fill="none" xmlns="http://www.w3.org/2000/svg">
    <path d="M375 812L375 0L0 0L0 812L375 812Z" fill="#EFEFEF"/>
    <path d="M426.599 682C426.599 682 423.96 753.136 338.683 766.218C253.406 779.3 238 868.668 238 868.668L426.603 867.996V682H426.599Z" fill="#FF9B00"/>
    <path d="M-8.99026 842.528H126.879C126.879 842.528 160.9 817.53 123.399 792.532C90.3075 770.473 73.4396 784.099 44.1638 747.535C38.064 739.916 32.9172 731.583 28.7041 722.78C23.8158 712.565 12.4805 693.863 -8.9864 682V842.528" fill="#005CC4"/>
    <path d="M79.9444 763.834C74.1533 762.526 68.8097 759.621 64.7509 755.289C61.7801 752.118 59.0755 747.874 58.03 742.412C55.2405 727.837 69.6083 731.495 82.9422 736.147C96.276 740.799 136.486 770.936 128.114 777.76C120.089 784.295 113.773 771.461 79.9444 763.834Z" fill="#005CC4"/>
    <path d="M181.129 0C181.129 0 261.664 22.4172 323.843 83.0606C354.26 112.727 424.749 142.875 500.805 140.791V0H181.129Z" fill="#FF8B78"/>
    <path d="M201.697 26.7301C210.273 31.1858 218.85 35.6415 227.427 40.0972C228.793 40.807 230.205 41.5554 231.115 42.7898C232.03 44.0243 232.277 45.8992 231.25 47.0449C230.29 48.1174 228.661 48.1791 227.218 48.1637C210.686 47.9631 193.548 47.6274 178.644 40.4752C172.703 37.6244 166.965 33.3616 164.693 27.1776C163.856 24.9016 163.586 22.178 164.982 20.1952C166.591 17.9152 169.778 17.4407 172.564 17.6452C183.502 18.463 191.928 21.6572 201.697 26.7301Z" fill="#FF8B78"/>
    <path d="M248.647 48.9005C249.488 49.0124 250.329 49.186 251.093 49.5602C252.532 50.2661 258.547 52.9357 259.469 54.2473C259.731 54.6215 260.005 55.0343 259.986 55.4895C259.967 56.0296 259.546 56.4655 259.114 56.7818C258.285 57.3875 257.308 57.7655 256.328 58.078C252.829 59.2006 244.353 58.6837 240.441 57.9816C239.356 57.7887 237.605 57.237 236.254 56.5889C228.168 52.6965 237.049 51.003 238.608 50.5979C241.069 49.9537 245.229 48.453 248.647 48.9005Z" fill="#FF8B78"/>
    <path d="M-10.244 624.79C-1.9605 630.619 4.60224 638.516 11.273 646.139C23.3607 659.946 36.2508 673.243 51.3594 683.659C77.8998 701.96 110.409 710.798 135.379 731.19C159.149 750.602 174.08 779.045 182.977 808.414C186.222 819.127 188.764 830.26 187.985 841.424C186.7 859.822 176.63 876.306 166.615 891.791C159.886 902.191 152.922 912.669 143.527 920.747C134.572 928.447 123.762 933.655 112.855 938.192C85.427 949.603 56.1976 957.384 26.4935 958.02C-3.21054 958.657 -33.4509 951.848 -58.5251 935.916C-86.3888 918.212 -106.613 890.063 -118.767 859.371C-130.92 828.679 -135.48 795.46 -136.719 762.476C-137.564 739.974 -136.842 717.032 -129.816 695.633C-116.641 655.49 -55.7318 592.787 -10.244 624.79Z" stroke="white" stroke-width="4" stroke-miterlimit="10"/>
    <path d="M331.246 174.106C309.181 172.327 289.57 156.889 279.497 137.179C269.423 117.47 268.053 94.1388 272.17 72.389C273.771 63.9252 276.263 55.4073 281.399 48.4904C294.304 31.0921 321.115 28.9935 340.34 38.9773C359.565 48.961 372.37 68.0221 381.877 87.4881C390.488 105.122 400.736 133.083 389.775 152.028C380.326 168.35 349.372 175.568 331.246 174.106Z" stroke="white" stroke-width="4" stroke-miterlimit="10"/>
    <path d="M5.01847 722.856C10.4315 728.361 14.0582 735.332 17.6038 742.195C20.0306 746.894 22.4574 751.588 24.8842 756.287C26.5895 759.585 28.3257 762.992 28.6652 766.687C29.0047 770.387 27.6081 774.496 24.3595 776.293C21.5121 777.867 18.0244 777.362 14.7989 776.941C10.9948 776.448 7.16747 776.135 3.33244 776.008C0.998249 775.931 -1.37838 775.927 -3.6084 776.61C-5.96189 777.331 -8.09546 778.801 -10.5415 779.098C-14.5695 779.592 -18.281 776.775 -20.7773 773.577C-28.999 763.038 -28.6942 748.325 -27.1085 735.054C-26.5877 730.707 -25.9511 726.293 -24.0567 722.343C-22.0157 718.088 -16.9847 712.479 -11.8147 712.946C-5.81141 713.486 0.971252 718.74 5.01847 722.856Z" fill="#EFEFEF"/>
</svg>
