<svg width="23" height="22" viewBox="0 0 23 22" fill="none" xmlns="http://www.w3.org/2000/svg">
    <path fill-rule="evenodd" clip-rule="evenodd" d="M11.7442 15.6523V11.43C12.8321 11.5189 13.6903 12.4305 13.6903 13.5411C13.6903 14.6512 12.8321 15.5634 11.7442 15.6523ZM11.2012 10.8583C10.1594 10.7245 9.35146 9.83502 9.35146 8.75774C9.35146 7.68047 10.1594 6.7905 11.2012 6.65716V10.8583ZM11.7424 10.8845V6.65526C12.7837 6.78859 13.5917 7.67856 13.5917 8.75584C13.5917 8.90505 13.7128 9.02622 13.862 9.02622C14.0118 9.02622 14.1329 8.90505 14.1329 8.75584C14.1329 7.37961 13.0832 6.24414 11.7424 6.10815V5.32506C11.7424 5.17533 11.6212 5.05469 11.4715 5.05469C11.3223 5.05469 11.2011 5.17533 11.2011 5.32506V6.10815C9.85982 6.24414 8.81006 7.37961 8.81006 8.75584C8.81006 10.1315 9.85982 11.2675 11.2011 11.4035V15.6232C10.2069 15.4481 9.4487 14.5803 9.4487 13.5374C9.4487 13.3877 9.32753 13.2665 9.17779 13.2665C9.02858 13.2665 8.90689 13.3877 8.90689 13.5374C8.90689 14.8798 9.90691 15.9904 11.2011 16.1703V16.9677C11.2011 17.1174 11.3223 17.2386 11.4715 17.2386C11.6212 17.2386 11.7424 17.1174 11.7424 16.9677V16.1899C13.1292 16.0999 14.2303 14.9459 14.2303 13.5374C14.2303 12.1284 13.1292 10.9749 11.7424 10.8845Z" fill="black"/>
    <path fill-rule="evenodd" clip-rule="evenodd" d="M11.5189 21.4385C5.84576 21.4385 1.22977 16.8226 1.22977 11.1494C1.22977 5.47571 5.84576 0.859723 11.5189 0.859723C17.1926 0.859723 21.8081 5.47571 21.8081 11.1494C21.8081 16.8226 17.1926 21.4385 11.5189 21.4385ZM11.5218 0.321289C5.54973 0.321289 0.691406 5.18014 0.691406 11.1522C0.691406 17.1244 5.54973 21.9827 11.5218 21.9827C17.4939 21.9827 22.3528 17.1244 22.3528 11.1522C22.3528 5.18014 17.4939 0.321289 11.5218 0.321289Z" fill="black"/>
    <path fill-rule="evenodd" clip-rule="evenodd" d="M11.5179 19.7776C6.75955 19.7776 2.88856 15.9066 2.88856 11.1483C2.88856 6.38996 6.75955 2.51949 11.5179 2.51949C16.2762 2.51949 20.1472 6.38996 20.1472 11.1483C20.1472 15.9066 16.2762 19.7776 11.5179 19.7776ZM11.5197 1.97559C6.46298 1.97559 2.34912 6.08998 2.34912 11.1462C2.34912 16.2029 6.46298 20.3168 11.5197 20.3168C16.5765 20.3168 20.6903 16.2029 20.6903 11.1462C20.6903 6.08998 16.5765 1.97559 11.5197 1.97559Z" fill="black"/>
</svg>
