<svg width="18" height="18" viewBox="0 0 18 18" fill="none" xmlns="http://www.w3.org/2000/svg">
    <path fill-rule="evenodd" clip-rule="evenodd" d="M9 18C4.02944 18 0 13.9706 0 9C0 4.02944 4.02944 0 9 0C13.9706 0 18 4.02944 18 9C18 13.9706 13.9706 18 9 18Z" fill="#FFE6B3"/>
    <path fill-rule="evenodd" clip-rule="evenodd" d="M8.46358 3.96165C8.48362 3.70115 8.70084 3.5 8.96211 3.5H9.0466C9.30347 3.5 9.51856 3.69465 9.54412 3.95025L9.99909 8.5L13.2472 10.356C13.4029 10.4451 13.4991 10.6107 13.4991 10.7902V10.8454C13.4991 11.1751 13.1856 11.4145 12.8675 11.3278L8.39775 10.1087C8.16637 10.0456 8.01239 9.82712 8.03078 9.588L8.46358 3.96165Z" fill="#FFAA00"/>
</svg>
