<svg width="24" height="24" viewBox="0 0 24 24" fill="none" xmlns="http://www.w3.org/2000/svg">
    <path d="M15.5 22C15.4343 22 15.3693 21.9871 15.3086 21.962C15.248 21.9369 15.1928 21.9 15.1465 21.8535C14.4839 21.1684 13.9316 20.3846 13.5093 19.5302C13.4793 19.4718 13.4612 19.4081 13.4559 19.3426C13.4506 19.2772 13.4582 19.2114 13.4783 19.1489C13.4985 19.0864 13.5307 19.0285 13.5732 18.9785C13.6157 18.9285 13.6677 18.8873 13.7261 18.8574C13.7845 18.8274 13.8482 18.8093 13.9137 18.804C13.9791 18.7987 14.0449 18.8063 14.1074 18.8264C14.1699 18.8466 14.2278 18.8788 14.2778 18.9213C14.3278 18.9638 14.369 19.0158 14.3989 19.0742C14.7741 19.8357 15.2648 20.5348 15.8535 21.1464C15.9234 21.2164 15.971 21.3054 15.9903 21.4024C16.0096 21.4994 15.9997 21.5999 15.9619 21.6913C15.924 21.7826 15.86 21.8607 15.7777 21.9157C15.6955 21.9706 15.5989 21.9999 15.5 22ZM13.2324 17.6499C13.2947 17.6291 13.3523 17.5963 13.4019 17.5533C13.4515 17.5103 13.4921 17.4579 13.5214 17.3992C13.5508 17.3404 13.5682 17.2765 13.5729 17.211C13.5775 17.1455 13.5691 17.0798 13.5483 17.0175C13.0181 15.3747 12.6662 13.6795 12.4985 11.9614C12.4935 11.8959 12.4756 11.8321 12.4458 11.7735C12.4161 11.715 12.3751 11.6629 12.3252 11.6202C12.2754 11.5774 12.2176 11.545 12.1551 11.5246C12.0927 11.5042 12.0269 11.4963 11.9614 11.5014C11.896 11.5065 11.8321 11.5244 11.7736 11.5541C11.715 11.5839 11.6629 11.6248 11.6202 11.6747C11.5775 11.7246 11.545 11.7824 11.5246 11.8448C11.5043 11.9072 11.4964 11.9731 11.5015 12.0385C11.6724 13.8386 12.0408 15.6144 12.6001 17.334C12.6208 17.3963 12.6536 17.4539 12.6966 17.5035C12.7396 17.5531 12.792 17.5938 12.8507 17.6231C12.9094 17.6525 12.9734 17.6699 13.0389 17.6745C13.1044 17.6791 13.1702 17.6707 13.2324 17.6499V17.6499ZM19.8535 17.8535C19.9 17.8071 19.9368 17.7519 19.9619 17.6913C19.987 17.6306 20 17.5656 20 17.5C20 17.4343 19.987 17.3693 19.9619 17.3087C19.9368 17.248 19.9 17.1929 19.8535 17.1465C18.0278 15.3203 18 12.0327 18 12C18.0011 11.2568 17.8637 10.5199 17.5947 9.8271C17.5467 9.70343 17.4515 9.60391 17.3301 9.55043C17.2086 9.49695 17.0709 9.4939 16.9473 9.54194C16.8236 9.58999 16.7241 9.68519 16.6706 9.80661C16.6171 9.92804 16.6141 10.0657 16.6621 10.1894C16.8864 10.7667 17.001 11.3807 17 12C17 12.1513 17.0244 15.7314 19.1465 17.8535C19.1929 17.8999 19.248 17.9367 19.3087 17.9619C19.3693 17.987 19.4343 17.9999 19.5 17.9999C19.5656 17.9999 19.6306 17.987 19.6913 17.9619C19.752 17.9367 19.8071 17.8999 19.8535 17.8535H19.8535ZM8.77734 19.916C8.83201 19.8796 8.87896 19.8328 8.91553 19.7782C8.95209 19.7236 8.97754 19.6624 8.99042 19.598C9.0033 19.5336 9.00336 19.4673 8.99059 19.4029C8.97782 19.3385 8.95248 19.2772 8.91602 19.2226C7.02588 16.3872 7 12.0434 7 12C7.00002 11.0519 7.26955 10.1234 7.77718 9.32274C8.2848 8.52206 9.0096 7.8822 9.86704 7.47776C10.7245 7.07333 11.6792 6.92099 12.6199 7.03852C13.5607 7.15605 14.4486 7.5386 15.1802 8.14155C15.2308 8.1837 15.2892 8.21543 15.3521 8.23493C15.4151 8.25443 15.4812 8.26131 15.5468 8.25518C15.6124 8.24905 15.6761 8.23002 15.7343 8.1992C15.7925 8.16838 15.844 8.12636 15.886 8.07556C15.9279 8.02476 15.9594 7.96618 15.9786 7.90319C15.9978 7.84019 16.0044 7.77402 15.998 7.70847C15.9916 7.64292 15.9723 7.57928 15.9412 7.52121C15.9101 7.46314 15.8679 7.41177 15.8169 7.37007C14.939 6.64646 13.8734 6.18735 12.7445 6.04627C11.6156 5.90519 10.4699 6.08795 9.44086 6.57325C8.41187 7.05855 7.54205 7.82638 6.93282 8.78721C6.3236 9.74803 6.00008 10.8623 6 12C6 12.1899 6.02393 16.687 8.084 19.7773C8.15756 19.8876 8.27193 19.9642 8.40196 19.9902C8.53199 20.0162 8.66702 19.9895 8.77736 19.916L8.77734 19.916ZM12.8535 21.8535C12.9 21.807 12.9368 21.7519 12.9619 21.6913C12.987 21.6306 13 21.5656 13 21.5C13 21.4343 12.987 21.3693 12.9619 21.3086C12.9368 21.248 12.9 21.1929 12.8535 21.1465C11.3364 19.6294 10.3247 16.6787 9.99463 14.4277C9.97546 14.2965 9.90497 14.1783 9.79865 14.0991C9.69234 14.0199 9.55891 13.9862 9.42773 14.0053C9.29655 14.0245 9.17835 14.095 9.09914 14.2013C9.01993 14.3076 8.9862 14.4411 9.00537 14.5722C9.33301 16.81 10.3525 20.0595 12.1465 21.8535C12.1929 21.8999 12.248 21.9368 12.3087 21.9619C12.3693 21.987 12.4343 22 12.5 22C12.5656 22 12.6306 21.987 12.6913 21.9619C12.752 21.9368 12.8071 21.8999 12.8535 21.8535L12.8535 21.8535ZM17.8535 19.8535C17.9 19.807 17.9368 19.7519 17.9619 19.6913C17.987 19.6306 18 19.5656 18 19.5C18 19.4343 17.987 19.3693 17.9619 19.3086C17.9368 19.248 17.9 19.1929 17.8535 19.1465C15.04 16.3325 15 11.5478 15 11.5C15 10.7043 14.6839 9.94124 14.1213 9.37863C13.5587 8.81602 12.7956 8.49995 12 8.49995C11.2043 8.49995 10.4413 8.81602 9.87868 9.37863C9.31607 9.94124 9 10.7043 9 11.5C9 11.6326 9.05268 11.7597 9.14645 11.8535C9.24021 11.9473 9.36739 12 9.5 12C9.63261 12 9.75978 11.9473 9.85355 11.8535C9.94732 11.7597 10 11.6326 10 11.5C10 10.9695 10.2107 10.4608 10.5858 10.0857C10.9609 9.71067 11.4696 9.49995 12 9.49995C12.5304 9.49995 13.0391 9.71067 13.4142 10.0857C13.7893 10.4608 14 10.9695 14 11.5C14 11.7124 14.0356 16.7426 17.1465 19.8535C17.1929 19.8999 17.248 19.9367 17.3087 19.9619C17.3693 19.987 17.4343 19.9999 17.5 19.9999C17.5656 19.9999 17.6306 19.987 17.6913 19.9619C17.752 19.9367 17.8071 19.8999 17.8535 19.8535L17.8535 19.8535ZM4.71826 18.0732C4.84205 18.0255 4.94185 17.9306 4.99569 17.8094C5.04953 17.6882 5.05301 17.5505 5.00537 17.4267C4.38305 15.683 4.04364 13.8509 4 12C3.99983 10.666 4.33283 9.35319 4.96875 8.18061C5.0322 8.06419 5.04681 7.92733 5.00936 7.80014C4.97191 7.67295 4.88546 7.56585 4.76904 7.50239C4.65262 7.43894 4.51576 7.42433 4.38857 7.46178C4.26138 7.49924 4.15427 7.58568 4.09082 7.7021C3.3748 9.02145 2.99983 10.4988 3 12C3.03882 13.9743 3.40088 15.9289 4.07178 17.7861C4.10813 17.8804 4.17219 17.9614 4.25551 18.0186C4.33883 18.0758 4.43752 18.1064 4.53857 18.1064C4.59999 18.1063 4.66087 18.0951 4.71826 18.0732ZM21.8535 15.8535C21.9 15.8071 21.9368 15.7519 21.9619 15.6913C21.987 15.6306 22 15.5656 22 15.5C22 15.4343 21.987 15.3693 21.9619 15.3087C21.9368 15.248 21.9 15.1929 21.8535 15.1465C21.1558 14.4487 21.001 12.6381 21 12C21 10.221 20.4729 8.48202 19.4851 7.00254C18.4974 5.52306 17.0933 4.3695 15.4503 3.68755C13.8073 3.00561 11.999 2.82588 10.2539 3.17106C8.50883 3.51624 6.90517 4.37086 5.64551 5.62695C5.59861 5.67322 5.56131 5.7283 5.53577 5.78903C5.51023 5.84976 5.49694 5.91494 5.49667 5.98082C5.4964 6.0467 5.50915 6.11199 5.5342 6.17293C5.55925 6.23386 5.59609 6.28925 5.64261 6.3359C5.68913 6.38255 5.74441 6.41954 5.80528 6.44476C5.86615 6.46997 5.9314 6.4829 5.99728 6.48282C6.06316 6.48273 6.12838 6.46962 6.18918 6.44424C6.24998 6.41887 6.30516 6.38173 6.35156 6.33495C7.47128 5.21845 8.89676 4.45883 10.448 4.15202C11.9992 3.84522 13.6065 4.005 15.0669 4.61118C16.5274 5.21736 17.7754 6.24275 18.6534 7.55783C19.5314 8.87292 20 10.4187 20 12C20 12.2768 20.0322 14.7392 21.1465 15.8535C21.1929 15.8999 21.248 15.9367 21.3087 15.9619C21.3693 15.987 21.4343 15.9999 21.5 15.9999C21.5656 15.9999 21.6306 15.987 21.6913 15.9619C21.752 15.9367 21.8071 15.8999 21.8535 15.8535H21.8535Z" fill="#959595"/>
</svg>
