<svg width="24" height="24" viewBox="0 0 24 24" fill="none" xmlns="http://www.w3.org/2000/svg">
    <path fill-rule="evenodd" clip-rule="evenodd" d="M19.5 9.5H19.3583C19.1622 9.49921 18.9812 9.38935 18.8876 9.2165L18.8624 9.09686C18.773 8.89428 18.8159 8.65768 18.9707 8.49939L19.0143 8.45592C19.4834 7.98733 19.7471 7.35102 19.7471 6.6875C19.7471 6.02398 19.4834 5.38767 19.0139 4.91875C18.5457 4.44996 17.9094 4.18619 17.2458 4.18619C16.5823 4.18619 15.946 4.44996 15.4771 4.91941L15.4274 4.96908C15.2757 5.11745 15.0391 5.16035 14.8365 5.07095C14.6298 4.98234 14.5009 4.78757 14.5 4.57168L14.5 4.5C14.5 3.11929 13.3807 2 12 2C10.6193 2 9.5 3.11929 9.5 4.5V4.64167C9.49921 4.83779 9.38935 5.01877 9.2165 5.11239L9.09686 5.13761C8.89428 5.22702 8.65768 5.18412 8.49939 5.02928L8.45592 4.98574C7.98733 4.51663 7.35102 4.25286 6.6875 4.25286C6.02398 4.25286 5.38767 4.51663 4.91875 4.98607C4.44996 5.45434 4.18619 6.09064 4.18619 6.75417C4.18619 7.41769 4.44996 8.054 4.91941 8.52292L4.96908 8.57259C5.11745 8.72435 5.16035 8.96095 5.07095 9.16353C4.97445 9.4211 4.77787 9.56169 4.5 9.56667C3.11929 9.56667 2 10.686 2 12.0667C2 13.4474 3.11929 14.5667 4.5 14.5667H4.64167C4.85424 14.5675 5.049 14.6965 5.13405 14.8949C5.22702 15.1057 5.18412 15.3423 5.02928 15.5006L4.98574 15.5441C4.51663 16.0127 4.25286 16.649 4.25286 17.3125C4.25286 17.976 4.51663 18.6123 4.98607 19.0813C5.45434 19.55 6.09064 19.8138 6.75417 19.8138C7.41769 19.8138 8.054 19.55 8.52292 19.0806L8.57259 19.0309C8.72435 18.8825 8.96095 18.8396 9.16353 18.9291C9.4211 19.0256 9.56169 19.2221 9.56667 19.5C9.56667 20.8807 10.686 22 12.0667 22C13.4474 22 14.5667 20.8807 14.5667 19.5V19.3583C14.5675 19.1458 14.6965 18.951 14.8949 18.8659C15.1057 18.773 15.3423 18.8159 15.5006 18.9707L15.5441 19.0143C16.0127 19.4834 16.649 19.7471 17.3125 19.7471C17.976 19.7471 18.6123 19.4834 19.0813 19.0139C19.55 18.5457 19.8138 17.9094 19.8138 17.2458C19.8138 16.5823 19.55 15.946 19.0806 15.4771L19.0309 15.4274C18.8825 15.2757 18.8396 15.0391 18.9326 14.8283C19.0177 14.6298 19.2124 14.5009 19.4283 14.5L19.5 14.5C20.8807 14.5 22 13.3807 22 12C22 10.6193 20.8807 9.5 19.5 9.5ZM15.333 12.0001C15.333 13.841 13.8407 15.3334 11.9997 15.3334C10.1588 15.3334 8.66638 13.841 8.66638 12.0001C8.66638 10.1591 10.1588 8.66675 11.9997 8.66675C13.8407 8.66675 15.333 10.1591 15.333 12.0001Z" fill="#004FD4"/>
</svg>
