<svg width="17" height="16" viewBox="0 0 17 16" fill="none" xmlns="http://www.w3.org/2000/svg">
    <path fill-rule="evenodd" clip-rule="evenodd" d="M0.426559 15.5836H16.0125V14.0427H0.426559V15.5836ZM16.221 16.0003H0.21689C0.101479 16.0003 0.0078125 15.9066 0.0078125 15.7912V13.8321C0.0078125 13.7167 0.101479 13.623 0.21689 13.623H16.221C16.3368 13.623 16.43 13.7167 16.43 13.8321V15.7912C16.43 15.9066 16.3368 16.0003 16.221 16.0003Z" fill="black"/>
    <path fill-rule="evenodd" clip-rule="evenodd" d="M0.431755 5.78633H16.0177L16.0051 4.31735L8.21113 0.442301L0.41921 4.3161L0.431755 5.78633ZM16.2286 6.20491H0.224553C0.109978 6.20491 0.0167291 6.1125 0.0154747 5.99751L2.90565e-06 4.1894C-0.00041525 4.10953 0.0443274 4.03594 0.11625 4.00039L8.11808 0.0216396C8.17663 -0.00721319 8.24562 -0.00721319 8.30416 0.0216396L16.3064 4.00039C16.3771 4.03552 16.4214 4.10702 16.4222 4.18564L16.4377 5.99416C16.4381 6.04978 16.4168 6.1033 16.3775 6.14302C16.3378 6.18275 16.2847 6.20491 16.2286 6.20491Z" fill="black"/>
    <path fill-rule="evenodd" clip-rule="evenodd" d="M1.48027 13.6247H3.25659V6.20662H1.48027V13.6247ZM3.46564 14.0415H1.27158C1.15617 14.0415 1.0625 13.9478 1.0625 13.8324V5.99619C1.0625 5.88036 1.15617 5.78711 1.27158 5.78711H3.46564C3.58147 5.78711 3.67472 5.88036 3.67472 5.99619V13.8324C3.67472 13.9478 3.58147 14.0415 3.46564 14.0415Z" fill="black"/>
    <path fill-rule="evenodd" clip-rule="evenodd" d="M5.13883 13.6247H5.81791V6.20662H5.13883V13.6247ZM6.02702 14.0415H4.92978C4.81437 14.0415 4.7207 13.9478 4.7207 13.8324V5.99619C4.7207 5.88036 4.81437 5.78711 4.92978 5.78711H6.02702C6.14285 5.78711 6.2361 5.88036 6.2361 5.99619V13.8324C6.2361 13.9478 6.14285 14.0415 6.02702 14.0415Z" fill="black"/>
    <path fill-rule="evenodd" clip-rule="evenodd" d="M13.1795 13.6247H14.9558V6.20662H13.1795V13.6247ZM15.1653 14.0415H12.9708C12.8554 14.0415 12.7617 13.9478 12.7617 13.8324V5.99619C12.7617 5.88036 12.8554 5.78711 12.9708 5.78711H15.1653C15.2807 5.78711 15.3744 5.88036 15.3744 5.99619V13.8324C15.3744 13.9478 15.2807 14.0415 15.1653 14.0415Z" fill="black"/>
    <path fill-rule="evenodd" clip-rule="evenodd" d="M10.6192 13.6247H11.2983V6.20662H10.6192V13.6247ZM11.5075 14.0415H10.4102C10.2948 14.0415 10.2012 13.9478 10.2012 13.8324V5.99619C10.2012 5.88036 10.2948 5.78711 10.4102 5.78711H11.5075C11.6229 5.78711 11.7166 5.88036 11.7166 5.99619V13.8324C11.7166 13.9478 11.6229 14.0415 11.5075 14.0415Z" fill="black"/>
</svg>
