<svg width="74" height="31" viewBox="0 0 74 31" fill="none" xmlns="http://www.w3.org/2000/svg">
    <path d="M6.16711 0.683645H0V29.7169H6.16711V0.683645ZM22.4403 29.7169H28.6039V9.36592H22.4403V29.7169ZM38.1982 29.7169H45.2965L52.4072 9.36592H46.2912C46.2912 9.36592 42.9504 20.4382 41.968 23.9463H41.8817C40.8958 20.4312 37.5136 9.36592 37.5136 9.36592H31.0047L38.1982 29.7169ZM74 9.36592H68.0479V12.143C67.0206 10.0054 64.6207 8.80997 61.8358 8.80997C56.7858 8.80997 52.801 12.9127 52.801 19.5401C52.801 26.1675 56.6414 30.2737 61.538 30.2737C64.9625 30.2737 67.0197 28.6059 68.047 26.7586V29.7081H73.9991V9.36592H74ZM67.8752 20.0547C67.8752 23.8153 65.5643 25.5702 63.2507 25.5702C60.7222 25.5702 59.0906 23.0139 59.0906 19.5401C59.0906 16.0663 60.8024 13.5135 63.4586 13.5135C65.6409 13.5135 67.869 15.3089 67.869 19.029L67.8752 20.0547ZM7.75117 19.029C17.6432 19.029 19.9541 10.7751 19.9541 9.36592H19.0995C9.20749 9.36592 6.89394 17.6163 6.89394 19.029H7.75117ZM6.89306 19.7987C6.89306 21.2941 8.60488 29.7046 19.2687 29.7046H20.1268C20.1268 28.2092 18.415 19.7987 7.75117 19.7987H6.89306ZM29.2057 3.76422C29.2532 1.73396 27.6436 0.0485282 25.6094 0.00102643C23.576 -0.0464754 21.8879 1.56067 21.8404 3.59181C21.7928 5.62207 23.4024 7.30751 25.4367 7.35501C25.4649 7.35589 25.4939 7.35589 25.5221 7.35589C27.4639 7.44649 29.1123 5.94755 29.203 4.00877C29.2065 3.92696 29.2074 3.84603 29.2057 3.76422Z"
          fill="#004FD4"/>
</svg>
