<svg width="204" height="139" viewBox="0 0 204 139" fill="none" xmlns="http://www.w3.org/2000/svg">
    <path fill-rule="evenodd" clip-rule="evenodd" d="M129.318 63.8815C128.601 63.2615 127.943 62.5515 127.157 62.0375C124.362 60.2085 121.547 58.4055 118.692 56.6725C116.59 55.3965 114.479 54.1025 112.256 53.0685C108.339 51.2465 104.246 49.9945 99.8669 49.8485C97.3119 49.7625 94.7609 49.5245 92.2069 49.4025C90.0989 49.3035 88.0709 49.7515 86.0639 50.3785C81.2529 51.8815 76.7099 54.0215 72.1229 56.0765C65.9159 58.8585 59.4789 61.0295 52.7569 62.1385C47.7399 62.9655 42.8989 64.2985 38.2469 66.3065C34.7389 67.8205 31.5799 69.8745 28.7799 72.5245C26.0809 75.0795 23.3109 77.5835 20.3949 79.8855C16.8819 82.6585 12.8409 84.5545 8.69586 86.2175C6.64386 87.0405 4.62786 87.9485 2.58886 88.8065C2.19886 88.9715 1.76486 89.2275 1.38586 89.1775C0.949861 89.1205 0.463861 88.8515 0.157861 88.5265C-0.226139 88.1165 0.172861 87.7345 0.480861 87.4405C1.29786 86.6575 2.14486 85.9065 2.95786 85.1195C6.19086 81.9905 8.76886 78.3215 11.4459 74.7385C13.4299 72.0815 15.2429 69.2945 17.2469 66.6515C18.3179 65.2385 19.5059 63.8605 20.8589 62.7245C24.1469 59.9635 27.3159 57.0265 31.0709 54.8775C34.2559 53.0545 37.4859 51.3115 40.7009 49.5415C41.0069 49.3725 41.3349 49.2225 41.6709 49.1285C46.5009 47.7605 51.3089 46.3095 56.1739 45.0805C59.0149 44.3635 61.9299 43.7205 64.8409 43.5485C70.5309 43.2135 76.2359 42.8605 81.9449 43.2665C87.2099 43.6405 92.4719 44.0855 97.6199 45.2955C101.873 46.2955 106.064 47.5195 110.035 49.4205C111.883 50.3055 113.835 50.9785 115.739 51.7475C115.791 51.6995 115.842 51.6505 115.893 51.6015C115.8 51.3715 115.728 51.1295 115.609 50.9135C114.643 49.1535 113.224 47.8105 111.608 46.6695C106.126 42.7965 100.641 38.9255 95.1369 35.0825C92.0889 32.9545 89.1069 30.7005 85.9059 28.8295C81.0329 25.9825 75.7169 24.1545 70.1459 23.2395C67.1059 22.7395 64.0129 22.4645 60.9339 22.3245C59.0229 22.2385 57.0909 22.5975 55.1699 22.7575C54.8439 22.7845 54.5199 22.8395 54.1949 22.8415C51.1019 22.8565 48.0079 22.8855 44.9159 22.8675C38.1299 22.8265 31.5259 21.6355 25.0669 19.6135C21.9259 18.6305 18.8189 17.5765 15.8629 16.0785C13.4549 14.8595 10.7959 14.4915 8.10986 14.4055C6.30086 14.3475 4.49086 14.3245 2.68186 14.2535C2.29186 14.2385 1.84786 14.1745 1.53486 13.9705C1.24286 13.7805 0.914861 13.3635 0.930861 13.0645C0.946861 12.7725 1.33086 12.3405 1.63486 12.2505C3.34386 11.7485 5.06886 11.2875 6.80586 10.8935C9.55086 10.2715 12.3299 9.78747 15.0599 9.10747C17.6669 8.45847 20.2229 7.61246 22.8129 6.89547C25.0169 6.28447 27.2319 5.71147 29.4539 5.16747C30.1799 4.98947 30.9399 4.91946 31.6889 4.86046C33.8949 4.68846 36.1049 4.57446 38.3099 4.38647C41.4429 4.11946 44.5259 4.61447 47.6309 4.86847C56.0419 5.55847 63.9659 7.98147 71.7989 11.0035C79.4419 13.9525 86.4839 17.8805 93.1009 22.6485C96.1789 24.8665 99.2969 27.0305 102.381 29.2385C103.076 29.7345 103.771 30.2515 104.366 30.8565C108.159 34.7085 111.816 38.6575 114.987 43.0755C118.833 48.4325 123.263 53.3195 128.078 57.8435C128.296 58.0485 128.544 58.2285 128.797 58.3885C131.606 60.1565 134.417 61.9215 137.23 63.6795C137.549 63.8795 137.881 64.0705 138.229 64.2035C138.383 64.2625 138.666 64.2315 138.762 64.1255C138.86 64.0185 138.874 63.7235 138.794 63.5885C138.514 63.1135 138.204 62.6525 137.861 62.2205C133.836 57.1355 129.709 52.1265 125.809 46.9475C123.837 44.3295 122.172 41.4625 120.539 38.6095C116.38 31.3385 112.047 24.1775 107.118 17.4025C103.635 12.6155 99.3809 8.55947 94.7259 4.91047C92.1549 2.89547 89.7489 0.654465 87.0799 -1.21554C84.6409 -2.92453 81.9589 -4.29153 79.3569 -5.76153C78.8459 -6.05053 78.2039 -6.09753 77.6369 -6.30153C77.1939 -6.46054 76.6559 -6.58954 76.3799 -6.91654C76.1049 -7.24254 75.9619 -7.81754 76.0199 -8.24854C76.0939 -8.79554 76.6229 -8.89553 77.1539 -8.84953C79.4829 -8.64753 81.8099 -8.38553 84.1439 -8.29653C85.8949 -8.22953 87.6699 -8.26754 89.4079 -8.47453C96.3679 -9.30254 102.764 -7.80054 108.566 -3.90854C110.776 -2.42653 112.868 -0.763535 114.96 0.886465C119.285 4.29746 122.026 8.81246 123.791 13.9505C125.588 19.1845 126.883 24.5505 127.888 29.9925C128.118 31.2385 128.627 32.4365 129.039 33.6465C129.46 34.8805 129.91 36.1045 130.362 37.3275C132.425 42.9095 134.272 48.5845 136.63 54.0385C138.506 58.3775 141.366 62.2145 144.467 65.8005C147.109 68.8545 150.58 70.7585 154.253 72.2905C159.981 74.6815 165.784 76.8765 171.758 78.5875C172.041 78.6685 172.332 78.7185 172.876 78.8415C172.553 78.0545 172.363 77.4225 172.051 76.8565C169.954 73.0485 167.787 69.2775 165.725 65.4495C161.928 58.3985 159.227 50.9265 157.379 43.1455C156.734 40.4355 156.127 37.7105 155.665 34.9645C155.303 32.8155 155.19 30.6235 154.972 28.4505C154.315 21.9105 152.586 15.6345 150.451 9.43847C148.138 2.72847 144.771 -3.41753 140.885 -9.31653C139.462 -11.4775 137.585 -13.0805 135.326 -14.2845C134.971 -14.4725 134.579 -14.6415 134.31 -14.9215C134.098 -15.1435 133.91 -15.5495 133.965 -15.8215C134.021 -16.0925 134.365 -16.4475 134.632 -16.4975C135.047 -16.5745 135.563 -16.5375 135.93 -16.3475C137.29 -15.6425 138.657 -14.9325 139.926 -14.0825C142.456 -12.3885 145.244 -11.2525 148.031 -10.0955C151.533 -8.64053 154.551 -6.42253 157.398 -3.97453C158.903 -2.68054 159.945 -0.999535 160.716 0.829466C162.417 4.86147 163.521 9.03946 163.782 13.4275C163.897 15.3575 164.214 17.2815 164.216 19.2085C164.219 21.5095 164.126 23.8315 163.82 26.1105C162.922 32.8145 162.576 39.5125 163.58 46.2305C164.025 49.2085 164.487 52.1835 164.994 55.1505C165.412 57.5975 166.336 59.8905 167.417 62.1045C169.301 65.9645 171.204 69.8195 173.227 73.6095C175.438 77.7485 178.64 80.9595 182.589 83.5375C187.785 86.9285 192.564 90.8385 196.483 95.7215C198.432 98.1515 200.51 100.478 202.529 102.853C202.692 103.044 202.896 103.222 202.991 103.444C203.146 103.811 203.435 104.346 203.293 104.561C203.075 104.89 202.557 105.115 202.131 105.192C201.169 105.367 200.398 104.938 199.708 104.26C196.19 100.809 192.67 97.3615 189.113 93.9525C188.044 92.9275 186.848 92.0365 185.721 91.0725C185.074 90.5185 184.421 89.9665 183.815 89.3675C182.547 88.1135 180.964 87.5015 179.281 87.1275C177.1 86.6425 174.914 86.1585 172.709 85.8165C171.737 85.6655 170.706 85.8155 169.71 85.9115C167.16 86.1575 164.606 86.3865 162.07 86.7415C158.825 87.1965 155.912 88.6185 153.197 90.3475C150.957 91.7745 148.802 93.3815 146.799 95.1275C141.236 99.9755 136.738 105.598 133.985 112.577C132.804 115.57 130.916 118.277 129.474 121.176C126.646 126.865 122.016 130.598 116.511 133.436C114.434 134.506 112.398 135.638 110.051 136.076C106.87 136.669 103.7 136.941 100.478 136.377C98.2539 135.987 96.0139 135.642 93.7659 135.449C92.4059 135.333 91.0159 135.544 89.6399 135.61C89.3149 135.626 88.9369 135.769 88.6759 135.649C88.2549 135.454 87.6869 135.147 87.5939 134.783C87.5059 134.437 87.8449 133.804 88.1839 133.57C88.6769 133.231 89.3479 132.941 89.9269 132.969C93.7029 133.155 96.8799 131.569 100.089 129.866C104.72 127.409 108.882 124.318 112.83 120.912C113.969 119.929 114.987 118.806 116.08 117.767C117.553 116.363 119.06 114.993 120.522 113.578C121.079 113.039 121.598 112.447 122.053 111.821C124.686 108.203 127.084 104.39 129.962 100.981C133.907 96.3075 137.812 91.5475 142.881 87.9455C144.475 86.8125 146.246 86.1605 148.024 85.4845C151.171 84.2875 154.334 83.1205 157.689 82.6305C159.798 82.3215 161.881 82.6135 163.988 82.8475C166.701 83.1495 169.448 83.1535 172.181 83.2595C172.374 83.2675 172.576 83.0545 172.773 82.9435C172.599 82.7875 172.45 82.5515 172.247 82.4865C169.925 81.7525 167.602 81.0185 165.266 80.3325C161.316 79.1735 157.286 78.2685 153.504 76.5865C152.448 76.1165 151.443 75.5025 150.351 75.1525C149.218 74.7895 148.014 74.6295 146.832 74.4515C146.041 74.3325 145.232 74.3365 144.43 74.2865C141.418 74.1015 138.54 74.7315 135.714 75.7145C133.39 76.5225 131.069 77.3445 128.722 78.0855C125.884 78.9815 123.626 80.7855 121.429 82.6635C118.028 85.5695 115.446 89.1825 113.095 92.9365C109.894 98.0485 106.843 103.254 103.739 108.427C101.402 112.319 98.7969 116.006 95.5839 119.236C94.5429 120.283 93.3629 121.104 92.0119 121.714C90.2719 122.499 88.4819 123.223 86.8649 124.219C85.0559 125.331 83.3219 126.609 81.7299 128.013C79.9059 129.623 78.2919 131.468 76.5469 133.172C76.1989 133.511 75.6849 133.845 75.2279 133.875C74.1859 133.942 73.5779 132.837 74.1909 131.995C74.8389 131.106 75.5439 130.221 76.3739 129.509C78.6729 127.539 80.1349 125.037 81.3319 122.313C83.5639 117.23 85.6749 112.083 88.1609 107.124C91.4049 100.651 95.6699 94.8615 101.125 90.0415C105.442 86.2265 109.917 82.6025 115.062 79.9175C116.087 79.3835 117.103 78.8115 118.176 78.3945C122.25 76.8135 126.306 75.1745 130.443 73.7775C134.125 72.5345 137.98 72.0815 141.866 71.9455C142.271 71.9315 142.669 71.6915 143.07 71.5555C142.719 71.3135 142.401 70.9545 142.013 70.8475C138.703 69.9315 135.406 68.9395 132.051 68.2145C129.384 67.6395 126.638 67.4455 123.938 67.0125C121.312 66.5915 118.716 65.9525 116.081 65.6375C111.232 65.0575 106.339 64.8035 101.485 65.3195C99.0729 65.5765 96.6929 66.4385 94.3799 67.2565C90.9959 68.4535 87.6779 69.8415 84.3449 71.1805C82.2159 72.0345 80.6259 73.6355 79.0079 75.1825C74.3819 79.6085 70.1519 84.4025 66.3579 89.5435C64.4419 92.1385 62.9739 95.0665 61.3379 97.8635C58.9249 101.985 56.6199 106.17 54.1209 110.237C52.5579 112.781 50.7539 115.178 49.0039 117.602C47.5989 119.546 45.6009 120.868 43.7649 122.349C42.0239 123.753 40.2749 125.156 38.4539 126.452C37.3579 127.232 36.1739 127.956 34.9269 128.444C31.4939 129.789 28.0609 131.191 24.3339 131.541C22.7099 131.694 21.0769 131.763 19.4519 131.919C17.4789 132.109 15.4339 132.091 13.5619 132.643C11.5669 133.229 9.69886 134.303 7.84686 135.299C6.23486 136.167 4.71486 137.21 3.17186 138.202C2.70386 138.503 2.20686 138.612 1.92686 138.13C1.72786 137.785 1.64586 137.128 1.84486 136.846C2.31386 136.184 2.94886 135.622 3.57686 135.091C7.49586 131.784 11.4459 128.514 15.3549 125.197C19.5689 121.621 22.7659 117.218 25.5479 112.489C27.7939 108.673 30.1439 104.939 32.9539 101.492C39.5519 93.3995 46.9429 86.1645 55.4959 80.1345C61.9719 75.5685 68.7699 71.6225 76.2069 68.8025C77.9519 68.1415 79.6039 67.1765 81.1999 66.1915C84.0099 64.4535 86.8219 62.7175 90.0819 61.9865C91.7879 61.6045 93.5499 61.3335 95.2939 61.2975C98.5579 61.2275 101.832 61.2795 105.092 61.4455C107.319 61.5595 109.531 61.9535 111.75 62.2185C115.191 62.6315 118.625 63.1575 122.078 63.4095C124.357 63.5755 126.641 63.5885 128.882 64.1045C128.993 64.1295 129.12 64.0845 129.239 64.0725C129.265 64.0085 129.292 63.9445 129.318 63.8815Z" fill="#51AE73"/>
</svg>
