<svg width="17" height="22" viewBox="0 0 17 22" fill="none" xmlns="http://www.w3.org/2000/svg">
    <path fill-rule="evenodd" clip-rule="evenodd" d="M16.3433 18.795H12.8871C12.7406 18.795 12.6226 18.6765 12.6226 18.5305C12.6226 18.3844 12.7406 18.2659 12.8871 18.2659H16.0788V1.51154H3.38214V3.05073C3.38214 3.19676 3.26362 3.31528 3.11758 3.31528C2.97155 3.31528 2.85303 3.19676 2.85303 3.05073V1.24698C2.85303 1.10094 2.97155 0.982422 3.11758 0.982422H16.3433C16.4894 0.982422 16.6079 1.10094 16.6079 1.24698V18.5305C16.6079 18.6765 16.4894 18.795 16.3433 18.795Z" fill="#004FD4"/>
    <path fill-rule="evenodd" clip-rule="evenodd" d="M1.01773 20.5221H10.3703V17.4427C10.3703 17.2966 10.4883 17.1781 10.6349 17.1781H13.7143V3.76772H1.01773V20.5221ZM10.6326 21.0499H0.750885C0.60485 21.0499 0.486328 20.9314 0.486328 20.7854V3.50186C0.486328 3.35583 0.60485 3.2373 0.750885 3.2373H13.9766C14.1227 3.2373 14.2412 3.35583 14.2412 3.50186V17.4414C14.2412 17.5879 14.1227 17.7059 13.9766 17.7059H10.8972V20.7854C10.8972 20.9314 10.7787 21.0499 10.6326 21.0499Z" fill="#004FD4"/>
    <path fill-rule="evenodd" clip-rule="evenodd" d="M10.8966 17.7074V20.1482L13.3374 17.7074H10.8966ZM10.6332 21.0499C10.5993 21.0499 10.5644 21.0435 10.5321 21.0298C10.4332 20.989 10.3687 20.8922 10.3687 20.7853V17.4413C10.3687 17.2953 10.4872 17.1768 10.6332 17.1768H13.9772C14.0841 17.1768 14.1809 17.2413 14.2217 17.3403C14.2624 17.4392 14.2396 17.5524 14.1645 17.6286L10.8205 20.9721C10.7697 21.0229 10.702 21.0499 10.6332 21.0499Z" fill="#004FD4"/>
    <path fill-rule="evenodd" clip-rule="evenodd" d="M11.3461 7.52423H3.38028C3.23424 7.52423 3.11572 7.40571 3.11572 7.25967C3.11572 7.11364 3.23424 6.99512 3.38028 6.99512H11.3461C11.4921 6.99512 11.6106 7.11364 11.6106 7.25967C11.6106 7.40571 11.4921 7.52423 11.3461 7.52423Z" fill="#004FD4"/>
    <path fill-rule="evenodd" clip-rule="evenodd" d="M11.3461 10.2283H3.38028C3.23424 10.2283 3.11572 10.1098 3.11572 9.96378C3.11572 9.81774 3.23424 9.69922 3.38028 9.69922H11.3461C11.4921 9.69922 11.6106 9.81774 11.6106 9.96378C11.6106 10.1098 11.4921 10.2283 11.3461 10.2283Z" fill="#004FD4"/>
    <path fill-rule="evenodd" clip-rule="evenodd" d="M11.3461 12.9324H3.38028C3.23424 12.9324 3.11572 12.8139 3.11572 12.6679C3.11572 12.5218 3.23424 12.4033 3.38028 12.4033H11.3461C11.4921 12.4033 11.6106 12.5218 11.6106 12.6679C11.6106 12.8139 11.4921 12.9324 11.3461 12.9324Z" fill="#004FD4"/>
    <path fill-rule="evenodd" clip-rule="evenodd" d="M4.91809 16.0271C4.21754 16.0271 3.64769 16.5969 3.64769 17.2969C3.64769 17.9975 4.21754 18.5673 4.91809 18.5673C5.61811 18.5673 6.18796 17.9975 6.18796 17.2969C6.18796 16.5969 5.61811 16.0271 4.91809 16.0271ZM4.91524 19.0936C3.92262 19.0936 3.11572 18.2867 3.11572 17.2941C3.11572 16.302 3.92262 15.4951 4.91524 15.4951C5.90733 15.4951 6.71423 16.302 6.71423 17.2941C6.71423 18.2867 5.90733 19.0936 4.91524 19.0936Z" fill="#004FD4"/>
</svg>