<svg width="24" height="24" viewBox="0 0 24 24" fill="none" xmlns="http://www.w3.org/2000/svg">
    <rect x="21" y="3" width="9" height="18" transform="rotate(90 21 3)" fill="#4C84E1"/>
    <path fill-rule="evenodd" clip-rule="evenodd" d="M18.75 18.75L18.75 15.375C18.75 15.375 18.943 14.25 19.875 14.25C20.807 14.25 21 15.375 21 15.375L21 21L15.375 21C15.375 21 14.25 21 14.25 19.875C14.25 18.75 15.375 18.75 15.375 18.75L18.75 18.75ZM5.25 8.625L5.25 5.25L8.625 5.25C8.625 5.25 9.75 5.25 9.75 4.125C9.75 3 8.625 3 8.625 3L3 3L3 8.625C3 8.625 3.19302 9.75 4.125 9.75C5.05698 9.75 5.25 8.625 5.25 8.625ZM8.625 18.75L5.25 18.75L5.25 15.375C5.25 15.375 5.25 14.25 4.125 14.25C3 14.25 3 15.375 3 15.375L3 21L8.625 21C8.625 21 9.75 20.807 9.75 19.875C9.75 18.943 8.625 18.75 8.625 18.75ZM15.375 5.25L18.75 5.25L18.75 8.625C18.75 8.625 18.75 9.75 19.875 9.75C21 9.75 21 8.625 21 8.625L21 3L15.375 3C15.375 3 14.25 3.19302 14.25 4.125C14.25 5.05698 15.375 5.25 15.375 5.25Z" fill="#FFFFFF"/>
</svg>
