<svg width="24" height="24" viewBox="0 0 24 24" fill="none" xmlns="http://www.w3.org/2000/svg">
    <path fill-rule="evenodd" clip-rule="evenodd" d="M4 4.0003L11.6314 2.56941C11.875 2.52374 12.125 2.52374 12.3686 2.56941L20 4.0003V11.9036C20 15.6963 18.0462 19.2214 14.83 21.2316L12.53 22.6691C12.2057 22.8717 11.7943 22.8717 11.47 22.6691L9.17001 21.2316C5.95382 19.2214 4 15.6963 4 11.9036L4 4.0003Z" fill="#B3CAF2"/>
    <path fill-rule="evenodd" clip-rule="evenodd" d="M9.5 10.5C9.5 9.11929 10.6193 8 12 8C13.3807 8 14.5 9.11929 14.5 10.5V11C15.0523 11 15.5 11.4477 15.5 12V15C15.5 15.5523 15.0523 16 14.5 16H9.5C8.94772 16 8.5 15.5523 8.5 15V12C8.5 11.4477 8.94772 11 9.5 11V10.5ZM12 9C11.1716 9 10.5 9.67157 10.5 10.5V11H13.5V10.5C13.5 9.67157 12.8284 9 12 9Z" fill="#004FD4"/>
    <path fill-rule="evenodd" clip-rule="evenodd" d="M4 4.0003L11.6314 2.56941C11.875 2.52374 12.125 2.52374 12.3686 2.56941L20 4.0003V11.9036C20 15.6963 18.0462 19.2214 14.83 21.2316L12.53 22.6691C12.2057 22.8717 11.7943 22.8717 11.47 22.6691L9.17001 21.2316C5.95382 19.2214 4 15.6963 4 11.9036L4 4.0003Z" fill="#B3CAF2"/>
    <path fill-rule="evenodd" clip-rule="evenodd" d="M9.5 10.5C9.5 9.11929 10.6193 8 12 8C13.3807 8 14.5 9.11929 14.5 10.5V11C15.0523 11 15.5 11.4477 15.5 12V15C15.5 15.5523 15.0523 16 14.5 16H9.5C8.94772 16 8.5 15.5523 8.5 15V12C8.5 11.4477 8.94772 11 9.5 11V10.5ZM12 9C11.1716 9 10.5 9.67157 10.5 10.5V11H13.5V10.5C13.5 9.67157 12.8284 9 12 9Z" fill="#004FD4"/>
</svg>
