<svg xmlns="http://www.w3.org/2000/svg" viewBox="0 0 16 20.29"><defs><style>.cls-1,.cls-3{fill:#b3caf2;isolation:isolate;}.cls-1{fill-rule:evenodd;}.cls-2{fill:#004fd4;}</style></defs><g id="Layer_2" data-name="Layer 2"><g id="Layer_1-2" data-name="Layer 1"><path class="cls-1" d="M0,1.47,7.63,0a2.3,2.3,0,0,1,.74,0L16,1.47v7.9a11,11,0,0,1-5.17,9.33l-2.3,1.43a1,1,0,0,1-1.06,0L5.17,18.7A11,11,0,0,1,0,9.37Z"/><rect class="cls-2" x="4.5" y="8.46" width="7" height="5" rx="1"/><path class="cls-2" d="M5.56,7.9a2.44,2.44,0,1,1,4.88,0v3.42H5.56Z"/><path class="cls-3" d="M6.5,8a1.5,1.5,0,0,1,3,0v.5h-3Z"/></g></g></svg>