<svg xmlns="http://www.w3.org/2000/svg" viewBox="0 0 20 20"><defs><style>.cls-1,.cls-2{fill:#004fd4;}.cls-1{opacity:0.3;isolation:isolate;}.cls-2{fill-rule:evenodd;}</style></defs><g id="Layer_2" data-name="Layer 2"><g id="Layer_1-2" data-name="Layer 1"><path class="cls-1" d="M10,0h0A10,10,0,0,1,20,10h0A10,10,0,0,1,10,20h0A10,10,0,0,1,0,10H0A10,10,0,0,1,10,0Z"/><path class="cls-2" d="M4.17,12.55a1,1,0,0,1,1.66-1.1A4.9,4.9,0,0,0,10,14a4.9,4.9,0,0,0,4.17-2.55,1,1,0,0,1,1.66,1.1A6.86,6.86,0,0,1,10,16,6.86,6.86,0,0,1,4.17,12.55Z"/></g></g></svg>