<svg width="21" height="20" viewBox="0 0 21 20" fill="none" xmlns="http://www.w3.org/2000/svg">
    <path fill-rule="evenodd" clip-rule="evenodd" d="M10.5 20C16.0228 20 20.5 15.5228 20.5 10C20.5 4.47715 16.0228 0 10.5 0C4.97715 0 0.5 4.47715 0.5 10C0.5 15.5228 4.97715 20 10.5 20Z" fill="#B9E2B3"/>
    <path d="M15.269 5.81769C15.6458 5.41393 16.2786 5.39211 16.6823 5.76895C17.0861 6.14578 17.1079 6.77857 16.7311 7.18232L9.73107 14.6823C9.36546 15.074 8.75606 15.108 8.34923 14.7593L4.84923 11.7593C4.4299 11.3998 4.38134 10.7685 4.74076 10.3492C5.10018 9.92989 5.73148 9.88132 6.15081 10.2407L8.92301 12.6169L15.269 5.81769Z" fill="#169D00"/>
</svg>
