<svg width="22" height="22" viewBox="0 0 22 22" fill="none" xmlns="http://www.w3.org/2000/svg">
<path fill-rule="evenodd" clip-rule="evenodd" d="M0.754783 20.5223H20.4764V18.5725H0.754783V20.5223ZM20.7399 21.049H0.489166C0.343131 21.049 0.224609 20.9305 0.224609 20.7845V18.3056C0.224609 18.1595 0.343131 18.041 0.489166 18.041H20.7399C20.8865 18.041 21.0045 18.1595 21.0045 18.3056V20.7845C21.0045 20.9305 20.8865 21.049 20.7399 21.049V21.049Z" fill="white"/>
<path fill-rule="evenodd" clip-rule="evenodd" d="M0.760869 8.12429H20.4825L20.4667 6.26551L10.6045 1.36222L0.744996 6.26393L0.760869 8.12429ZM20.7507 8.65119H0.499958C0.354981 8.65119 0.236989 8.53426 0.235401 8.38875L0.215824 6.10086C0.215295 5.9998 0.27191 5.90668 0.362918 5.8617L10.488 0.827186C10.5621 0.790677 10.6494 0.790677 10.7235 0.827186L20.8491 5.8617C20.9386 5.90615 20.9947 5.99663 20.9957 6.0961L21.0153 8.38452C21.0158 8.45489 20.9888 8.52262 20.9391 8.57288C20.8888 8.62315 20.8216 8.65119 20.7507 8.65119V8.65119Z" fill="white"/>
<path fill-rule="evenodd" clip-rule="evenodd" d="M2.08866 18.0366H4.33634V8.65011H2.08866V18.0366ZM4.60136 18.5658H1.8251C1.67907 18.5658 1.56055 18.4473 1.56055 18.3012V8.38565C1.56055 8.23909 1.67907 8.12109 1.8251 8.12109H4.60136C4.74793 8.12109 4.86592 8.23909 4.86592 8.38565V18.3012C4.86592 18.4473 4.74793 18.5658 4.60136 18.5658V18.5658Z" fill="white"/>
<path fill-rule="evenodd" clip-rule="evenodd" d="M6.71468 18.0356H7.57396V8.64914H6.71468V18.0356ZM7.8424 18.5658H6.45401C6.30797 18.5658 6.18945 18.4473 6.18945 18.3012V8.38565C6.18945 8.23909 6.30797 8.12109 6.45401 8.12109H7.8424C7.98897 8.12109 8.10696 8.23909 8.10696 8.38565V18.3012C8.10696 18.4473 7.98897 18.5658 7.8424 18.5658V18.5658Z" fill="white"/>
<path fill-rule="evenodd" clip-rule="evenodd" d="M16.8927 18.0378H19.1404V8.65136H16.8927V18.0378ZM19.4056 18.5658H16.6288C16.4828 18.5658 16.3643 18.4473 16.3643 18.3012V8.38565C16.3643 8.23909 16.4828 8.12109 16.6288 8.12109H19.4056C19.5516 8.12109 19.6702 8.23909 19.6702 8.38565V18.3012C19.6702 18.4473 19.5516 18.5658 19.4056 18.5658V18.5658Z" fill="white"/>
<path fill-rule="evenodd" clip-rule="evenodd" d="M13.6542 18.0395H14.5135V8.65305H13.6542V18.0395ZM14.776 18.5658H13.3876C13.2416 18.5658 13.123 18.4473 13.123 18.3012V8.38565C13.123 8.23909 13.2416 8.12109 13.3876 8.12109H14.776C14.922 8.12109 15.0406 8.23909 15.0406 8.38565V18.3012C15.0406 18.4473 14.922 18.5658 14.776 18.5658V18.5658Z" fill="white"/>
</svg>
