<svg width="48" height="48" viewBox="0 0 48 48" fill="none" xmlns="http://www.w3.org/2000/svg">
    <path fill-rule="evenodd" clip-rule="evenodd" d="M23 6C18.0294 6 14 10.0294 14 15V24H9.5C8.67157 24 8 24.6716 8 25.5V28.5C8 29.3284 8.67157 30 9.5 30H38.5C39.3284 30 40 29.3284 40 28.5V25.5C40 24.6716 39.3284 24 38.5 24H34V15C34 10.0294 29.9706 6 25 6H23Z" fill="#004FD4"/>
    <path opacity="0.3" d="M20 32.018C20 32.008 20.008 32 20.018 32H27.982C27.992 32 28 32.008 28 32.018V36C28 38.2091 26.2091 40 24 40C21.7909 40 20 38.2091 20 36V32.018Z" fill="#004FD4"/>
</svg>
