<svg width="83" height="97" viewBox="0 0 83 97" fill="none" xmlns="http://www.w3.org/2000/svg">
    <path d="M50.2312 46.44C53.3231 46.44 53.329 41.6367 50.2312 41.6367C47.1394 41.6367 47.1335 46.44 50.2312 46.44Z" fill="black"/>
    <path d="M70.8836 33.7993C73.9754 33.7993 73.9813 28.9961 70.8836 28.9961C67.7918 28.9961 67.7859 33.7993 70.8836 33.7993Z" fill="black"/>
    <path d="M68.4059 71.7173C71.4977 71.7173 71.5036 66.9141 68.4059 66.9141C65.3141 66.9141 65.3111 71.7173 68.4059 71.7173Z" fill="black"/>
    <path d="M46.1023 75.4361C49.1941 75.4361 49.2001 70.6328 46.1023 70.6328C43.0105 70.6328 43.0046 75.4361 46.1023 75.4361Z" fill="black"/>
    <path d="M74.1861 58.3365C77.2779 58.3365 77.2838 53.5332 74.1861 53.5332C71.0972 53.5302 71.0913 58.3365 74.1861 58.3365Z" fill="black"/>
    <path d="M25.45 59.0786C28.5418 59.0786 28.5477 54.2754 25.45 54.2754C22.3582 54.2754 22.3523 59.0786 25.45 59.0786Z" fill="black"/>
    <path d="M11.407 79.1548C14.4988 79.1548 14.5047 74.3516 11.407 74.3516C8.3152 74.3486 8.30929 79.1548 11.407 79.1548Z" fill="black"/>
    <path d="M42.7976 18.9283C45.8895 18.9283 45.8954 14.125 42.7976 14.125C39.7058 14.125 39.6999 18.9283 42.7976 18.9283Z" fill="black"/>
    <path d="M2.32108 51.6451C5.4129 51.6451 5.41881 46.8418 2.32108 46.8418C-0.770737 46.8418 -0.776649 51.6451 2.32108 51.6451Z" fill="black"/>
    <path d="M71.7078 4.80325C74.7996 4.80325 74.8055 0 71.7078 0C68.616 0 68.6101 4.80325 71.7078 4.80325Z" fill="black"/>
    <path d="M17.1911 28.5943C20.2829 28.5943 20.2888 23.791 17.1911 23.791C14.0992 23.791 14.0963 28.5943 17.1911 28.5943Z" fill="black"/>
</svg>
