<svg width="214" height="200" viewBox="0 0 214 200" fill="none" xmlns="http://www.w3.org/2000/svg">
    <path d="M-38.9159 311.194C-26.407 315.042 -20.6815 312.3 -11.8144 310.9C-6.33252 310.035 -0.782419 307.724 4.49757 306.095C13.1639 303.423 25.9561 300.643 32.077 293.58C36.3563 288.643 36.8729 284.028 43.5544 281.706C53.5447 278.234 66.3756 282.578 75.8691 277.192C82.1728 273.617 80.9259 266.628 85.0713 260.952C88.352 256.46 93.4145 249.465 98.495 246.76C111.785 239.686 126.825 236.547 139.654 227.863C145.267 224.065 146.43 220.243 150.385 215.336C154.284 210.497 161.016 208.453 163.374 202.2C165.763 195.867 165.416 192.036 170.345 186.616C181.378 174.485 192.613 169.535 196.602 152.889C199.017 142.811 205.108 133.085 199.484 123.108C192.421 110.578 175.14 106.588 161.975 105.539C128.916 102.906 95.8504 106.34 62.8463 105.939C28.863 105.526 -3.17472 98.2325 -37.1247 103.672C-47.0462 105.262 -59.9777 105.318 -67.9207 112.115C-77.6901 120.476 -84.2636 139.305 -86.4069 151.305C-89.3771 167.937 -84.9551 186.85 -80.2834 202.893C-76.4552 216.039 -73.3259 231.111 -67.5461 243.367C-61.3836 256.435 -57.9207 261.421 -57.8803 276.412C-57.8593 284.035 -56.6392 286.798 -51.5629 292.801" fill="#FFAA00"/>
    <path d="M37.0652 236.616C51.8913 238.689 67.4529 235.155 79.1125 225.794C91.3953 215.932 102.662 197.012 102.879 180.971C103.08 166.111 96.4667 148.029 91.7681 133.916C87.0669 119.792 73.4768 110.471 61.1506 103.181C42.7035 92.2694 25.7247 89.6749 5.38282 95.3592C-10.4826 99.7923 -24.0779 108.791 -36.8663 118.86C-48.291 127.854 -57.0498 138.234 -54.8844 153.31C-53.0381 166.157 -49.4452 181.024 -44.1134 192.618C-37.1063 207.85 -23.7434 219.859 -9.30541 227.878C7.77297 237.362 24.453 237.612 37.0652 236.616Z" stroke="#D74937" stroke-width="2" stroke-miterlimit="10"/>
    <path d="M17.2753 171.589C23.9989 174.783 30.6561 166.609 23.3554 163.642C18.8023 161.793 12.2294 167.687 16.0802 171.177L17.2753 171.589Z" stroke="#D74937" stroke-width="2" stroke-miterlimit="10"/>
    <path d="M19.5643 176.502C28.8057 175.953 40.2432 165.943 27.5417 160.046C22.3605 157.641 16.6609 157.894 11.781 160.787C7.00319 163.619 7.31218 168.289 11.0685 171.657C12.8841 173.289 17.0184 177.569 19.5643 176.502Z" stroke="#D74937" stroke-width="2" stroke-miterlimit="10"/>
    <path d="M16.7205 183.838C23.7736 186.469 29.3327 185.332 35.9618 182.076C39.8586 180.164 45.4918 174.117 45.2211 169.582C44.6721 160.427 34.7259 156.686 27.3588 154.232C21.1485 152.164 10.4566 151.267 5.38773 156.272C1.67481 159.937 0.242254 166.494 2.49452 171.196C4.28714 174.947 12.9412 185.8 16.7205 183.838Z" stroke="#D74937" stroke-width="2" stroke-miterlimit="10"/>
    <path d="M21.3114 193.734C28.3261 196.338 37.7336 193.58 44.2912 190.493C50.7032 187.475 55.9253 182.424 56.505 174.914C56.9978 168.52 51.8881 161.308 47.2967 157.228C42.5317 152.994 36.6738 149.357 30.7444 147.064C19.0873 142.557 2.20806 141.012 -4.19889 153.586C-9.92148 164.817 -10.4322 173.9 -0.838371 183.009C4.40414 187.991 15.2952 195.263 21.3114 193.734Z" stroke="#D74937" stroke-width="2" stroke-miterlimit="10"/>
    <path d="M22.8665 211.539C26.7709 213.24 32.994 212.499 37.1053 212.216C42.4448 211.848 47.363 209.931 52.5596 208.937C64.9266 206.575 71.354 193.1 71.9362 181.093C72.8964 161.254 54.6025 144.597 37.3913 138.489C25.821 134.383 12.6547 128.213 0.484283 133.502C-7.1918 136.837 -12.299 142.306 -15.445 149.934C-20.8816 163.111 -19.4388 181.55 -7.06923 190.457C-0.787403 194.982 5.82128 199.04 11.6128 204.052C16.0126 207.867 17.6189 211.616 22.8665 211.539Z" stroke="#D74937" stroke-width="2" stroke-miterlimit="10"/>
    <path d="M10.6636 217.259C12.9286 217.864 14.6089 219.817 16.8688 220.691C21.3018 222.404 26.2788 222.128 30.9467 221.674C37.8542 221.002 44.1615 218.224 50.7651 216.258C55.6654 214.8 60.41 213.372 64.792 210.719C71.3062 206.776 74.2581 202.788 76.6406 195.632C78.8112 189.121 79.1482 181.904 78.6324 175.112C78.2672 170.296 76.7121 166.279 75.4251 161.629C71.1632 146.246 58.1884 133.284 43.8219 126.384C37.4635 123.33 31.603 120.228 24.6087 119.137C17.2876 117.998 11.2152 118.491 4.0166 119.719C-8.17677 121.801 -14.8467 130.646 -23.4396 138.718C-31.1054 145.919 -35.6125 156.92 -34.8056 167.535C-34.1391 176.307 -29.9563 182.785 -24.0703 188.911C-16.8845 196.391 -9.77532 203.819 -1.56809 210.037C0.809301 211.838 6.38123 217.726 10.6636 217.259Z" stroke="#D74937" stroke-width="2" stroke-miterlimit="10"/>
    <path d="M29.1923 230.349C34.0416 232.389 39.9965 230.839 45.1037 230.329C50.7446 229.764 56.2807 228.564 61.7148 226.966C69.1636 224.777 74.3269 223.255 79.3805 217.157C82.9785 212.814 84.623 207.757 86.4335 202.495C88.7598 195.728 92.2889 188.549 93.6065 181.501C94.8169 175.02 91.4411 167.694 89.6587 161.617C87.5571 154.446 84.0714 147.513 80.4862 140.966C71.9853 125.448 60.0217 113.941 43.5741 106.768C25.773 99.0053 6.01084 105.052 -12.0864 108.995C-19.7753 110.67 -26.3763 116.64 -31.0417 122.72C-34.5478 127.289 -38.7918 132.498 -41.0467 137.725C-43.5696 143.573 -44.5604 149.523 -45.3469 155.83C-46.0517 161.494 -47.1931 166.647 -45.8346 172.37C-44.3229 178.733 -39.0115 183.585 -35.1121 188.537C-31.3839 193.271 -28.0872 198.179 -24.3794 202.926C-19.594 209.052 -13.8944 215.291 -7.52573 219.941C-2.32662 223.738 4.85917 225.178 10.8601 227.241C14.739 228.574 17.7624 228.36 21.7026 228.643C24.3124 228.83 27.2541 230.732 29.1923 230.349Z" stroke="#D74937" stroke-width="2" stroke-miterlimit="10"/>
    <path d="M36.7803 241.705C43.0008 241.784 49.1754 240.829 55.4087 240.387C63.3912 239.823 71.6163 240.298 79.0907 236.789C84.54 234.233 87.2519 228.148 91.4526 224.108C96.8585 218.909 100.842 212.54 104.473 205.99C106.795 201.805 108.237 198.335 108.858 193.508C109.427 189.068 109.358 184.607 110.122 180.179C111.876 170.02 110.954 163.182 107.783 153.417C106.299 148.851 105.433 143.289 102.609 139.405C98.6639 133.977 95.2523 128.213 92.354 122.159C89.9051 117.044 87.4333 111.64 83.8072 107.266C78.8123 101.242 72.1066 99.3448 66.1874 94.7075C48.9354 81.1914 24.947 76.9116 5.11326 86.8399C-2.10829 90.4558 -9.41665 93.0247 -16.7633 96.2167C-26.0124 100.236 -34.8197 106.005 -43.5734 110.984C-51.533 115.514 -59.6355 121.313 -63.0113 130.182C-64.569 134.275 -64.0762 139.408 -62.9756 143.499C-62.0946 146.778 -62.6666 149.985 -62.2785 153.305C-61.8546 156.931 -61.1293 160.753 -60.376 164.328C-59.5768 168.126 -58.0727 171.719 -57.013 175.444C-56.1294 178.555 -56.5329 181.639 -56.0988 184.831C-55.4604 189.517 -53.4584 195.153 -51.5304 199.471C-48.7802 205.633 -45.2409 213.812 -39.8733 218.176C-33.3923 223.449 -24.4317 226.58 -16.9599 230.224C-10.2466 233.497 -3.21399 236.922 4.03564 238.924C9.3471 240.39 15.1412 239.976 20.6033 240.63C24.4975 241.094 28.4377 241.225 32.3498 241.552C34.0301 241.689 35.8559 242.458 36.7803 241.705Z" stroke="#D74937" stroke-width="2" stroke-miterlimit="10"/>
</svg>
